<svg width="18" height="19" viewBox="0 0 18 19" fill="none" xmlns="http://www.w3.org/2000/svg">
<path d="M7.125 14L10.125 9.5H5.625L8.625 5M16.5 10.25V8.75M10.5 14H10.65C11.9101 14 12.5402 14 13.0215 13.7548C13.4448 13.539 13.789 13.1948 14.0048 12.7715C14.25 12.2902 14.25 11.6601 14.25 10.4V8C14.25 7.30252 14.25 6.95378 14.1733 6.66766C13.9653 5.8912 13.3588 5.28472 12.5823 5.07667C12.2962 5 11.9475 5 11.25 5M5.25 5H5.1C3.83988 5 3.20982 5 2.72852 5.24524C2.30516 5.46095 1.96095 5.80516 1.74524 6.22852C1.5 6.70982 1.5 7.33988 1.5 8.6V11C1.5 11.6975 1.5 12.0462 1.57667 12.3323C1.78472 13.1088 2.3912 13.7153 3.16766 13.9233C3.45378 14 3.80252 14 4.5 14" stroke="#2DBA9D" stroke-width="1.5" stroke-linecap="round" stroke-linejoin="round"/>
<path d="M7.125 14L10.125 9.5H5.625L8.625 5M16.5 10.25V8.75M10.5 14H10.65C11.9101 14 12.5402 14 13.0215 13.7548C13.4448 13.539 13.789 13.1948 14.0048 12.7715C14.25 12.2902 14.25 11.6601 14.25 10.4V8C14.25 7.30252 14.25 6.95378 14.1733 6.66766C13.9653 5.8912 13.3588 5.28472 12.5823 5.07667C12.2962 5 11.9475 5 11.25 5M5.25 5H5.1C3.83988 5 3.20982 5 2.72852 5.24524C2.30516 5.46095 1.96095 5.80516 1.74524 6.22852C1.5 6.70982 1.5 7.33988 1.5 8.6V11C1.5 11.6975 1.5 12.0462 1.57667 12.3323C1.78472 13.1088 2.3912 13.7153 3.16766 13.9233C3.45378 14 3.80252 14 4.5 14" stroke="url(#paint0_linear_9334_30367)" stroke-width="1.5" stroke-linecap="round" stroke-linejoin="round"/>
<defs>
<linearGradient id="paint0_linear_9334_30367" x1="16.5" y1="3.3125" x2="-2.99426" y2="11.5125" gradientUnits="userSpaceOnUse">
<stop stop-color="#DE0E11"/>
<stop offset="1" stop-color="#FED03A"/>
</linearGradient>
</defs>
</svg>
