<svg width="12" height="12" viewBox="0 0 12 12" fill="none" xmlns="http://www.w3.org/2000/svg">
<path fill-rule="evenodd" clip-rule="evenodd" d="M7.12065 2.5H3.37935C2.97687 2.49999 2.64468 2.49999 2.37409 2.5221C2.09304 2.54506 1.83469 2.59434 1.59202 2.71799C1.2157 2.90973 0.909734 3.2157 0.717988 3.59202C0.594342 3.83469 0.54506 4.09304 0.522097 4.37409C0.499989 4.64468 0.499994 4.97686 0.5 5.37934V6.62065C0.499994 7.02313 0.499989 7.35532 0.522097 7.62591C0.54506 7.90696 0.594342 8.16531 0.717988 8.40798C0.909734 8.78431 1.2157 9.09027 1.59202 9.28201C1.83469 9.40566 2.09304 9.45494 2.37409 9.4779C2.64469 9.50001 2.97687 9.50001 3.37936 9.5H7.12064C7.52313 9.50001 7.85531 9.50001 8.12591 9.4779C8.40696 9.45494 8.66531 9.40566 8.90798 9.28201C9.28431 9.09027 9.59027 8.78431 9.78201 8.40798C9.90566 8.16531 9.95494 7.90696 9.9779 7.62591C10 7.35532 10 7.02314 10 6.62066V5.37934C10 4.97686 10 4.64468 9.9779 4.37409C9.95494 4.09304 9.90566 3.83469 9.78201 3.59202C9.59027 3.2157 9.28431 2.90973 8.90798 2.71799C8.66531 2.59434 8.40696 2.54506 8.12591 2.5221C7.85532 2.49999 7.52313 2.49999 7.12065 2.5ZM5.52041 4.74279C5.65452 4.5014 5.56755 4.197 5.32615 4.06289C5.08476 3.92878 4.78036 4.01576 4.64625 4.25715L3.81292 5.75715C3.72689 5.91201 3.72922 6.10084 3.81906 6.25353C3.90891 6.40622 4.07284 6.49997 4.25 6.49997H5.40024L4.97959 7.25715C4.84548 7.49854 4.93245 7.80294 5.17385 7.93705C5.41524 8.07115 5.71964 7.98418 5.85375 7.74279L6.68708 6.24279C6.77312 6.08793 6.77078 5.89909 6.68094 5.74641C6.59109 5.59372 6.42716 5.49997 6.25 5.49997H5.09976L5.52041 4.74279Z" fill="#19ACB6"/>
<path d="M11.5 5.5C11.5 5.22386 11.2761 5 11 5C10.7239 5 10.5 5.22386 10.5 5.5V6.5C10.5 6.77614 10.7239 7 11 7C11.2761 7 11.5 6.77614 11.5 6.5V5.5Z" fill="#19ACB6"/>
</svg>
