<svg width="20" height="20" viewBox="0 0 20 20" fill="none" xmlns="http://www.w3.org/2000/svg">
<path d="M12.0848 5.69752L10.4165 5.40419L10.5607 4.58335L12.284 4.88627C12.4127 4.66716 12.5965 4.48549 12.8171 4.35927C13.0376 4.23305 13.2874 4.16666 13.5415 4.16669H15.1603C15.3019 4.16669 15.4165 4.28127 15.4165 4.42294V6.8271C15.4165 6.96877 15.3015 7.08335 15.1603 7.08335H13.5415C13.1673 7.08339 12.8073 6.93954 12.5362 6.68159C12.265 6.42363 12.1034 6.0713 12.0848 5.69752Z" fill="#19ACB6"/>
<path fill-rule="evenodd" clip-rule="evenodd" d="M12.8353 7.73456L12.4478 10.8333H9.58317V10.3C9.58317 10.1341 9.42567 9.99997 9.2315 9.99997H5.869C3.54817 9.99997 1.6665 11.6041 1.6665 13.5833C1.6665 13.675 1.754 13.75 1.86234 13.75H3.759C3.81014 14.32 4.07274 14.8503 4.49514 15.2365C4.91754 15.6227 5.46916 15.8369 6.0415 15.8369C6.61384 15.8369 7.16547 15.6227 7.58787 15.2365C8.01027 14.8503 8.27286 14.32 8.324 13.75H8.70317C8.719 13.75 8.73456 13.7497 8.74984 13.7491V13.75H13.069C13.1532 14.0333 13.3953 14.2146 13.6598 14.2708C13.8365 14.8004 14.2005 15.2473 14.6834 15.5276C15.1663 15.8079 15.7349 15.9022 16.2824 15.7929C16.8299 15.6835 17.3187 15.3781 17.657 14.9339C17.9952 14.4897 18.1597 13.9373 18.1194 13.3804C18.3048 13.1871 18.3982 12.9033 18.284 12.5962C18.153 12.2442 17.9502 11.9234 17.6885 11.654C17.4268 11.3846 17.1119 11.1725 16.7639 11.0314C16.4159 10.8902 16.0423 10.8229 15.6668 10.8339C15.2914 10.8448 14.9224 10.9337 14.5832 11.095V7.91664H13.5415C13.2945 7.91675 13.0514 7.85409 12.8353 7.73456ZM7.06234 13.75H5.02067C5.06849 13.9855 5.19624 14.1972 5.38228 14.3492C5.56833 14.5013 5.80122 14.5844 6.0415 14.5844C6.28179 14.5844 6.51468 14.5013 6.70072 14.3492C6.88677 14.1972 7.01452 13.9855 7.06234 13.75ZM14.9557 14.1033C15.0666 14.2764 15.2263 14.4129 15.4146 14.4955C15.6029 14.578 15.8114 14.6031 16.0139 14.5674C16.2164 14.5317 16.4039 14.4369 16.5526 14.295C16.7013 14.153 16.8048 13.9702 16.8498 13.7696L14.9557 14.1033Z" fill="#19ACB6"/>
<path d="M3.82083 8.33333C3.82893 8.31058 3.83768 8.28807 3.84708 8.26583L3.82083 8.33333ZM3.82083 8.33333C3.775 8.46375 3.75 8.60417 3.75 8.75V9.16667H10V8.75C9.99944 8.60917 9.9775 8.47556 9.93417 8.34917L9.92917 8.33333C9.84296 8.08952 9.68326 7.87844 9.47207 7.72919C9.26089 7.57994 9.00861 7.49986 8.75 7.5H5C4.75426 7.49994 4.51395 7.57232 4.30912 7.70809C4.10428 7.84385 3.94401 8.03698 3.84833 8.26333" fill="#19ACB6"/>
</svg>
