<svg width="16" height="16" viewBox="0 0 16 16" fill="none" xmlns="http://www.w3.org/2000/svg">
    <path
        d="M13.5817 11.0736C13.8258 10.9621 14.0328 10.7828 14.1779 10.557C14.323 10.3312 14.4001 10.0684 14.4001 9.80001V8.82961C14.4002 8.38886 14.2546 7.96043 13.9861 7.61091C13.7176 7.26139 13.3412 7.01035 12.9153 6.89681L11.2409 6.45041L10.0073 4.22881C9.83405 3.91694 9.58054 3.65708 9.27304 3.47618C8.96555 3.29529 8.61526 3.19993 8.2585 3.20001H5.5537C5.13384 3.2 4.72462 3.33211 4.38403 3.57764C4.04345 3.82318 3.78877 4.16967 3.6561 4.56801L2.9977 6.54241C2.59227 6.67048 2.23819 6.92441 1.98688 7.26736C1.73556 7.61032 1.60008 8.02444 1.6001 8.44961V9.80001C1.6001 10.3656 1.9361 10.8528 2.4185 11.0736C2.48256 11.5417 2.71025 11.9719 3.06121 12.2882C3.41216 12.6044 3.86374 12.7862 4.33592 12.8014C4.8081 12.8165 5.27039 12.664 5.64089 12.3709C6.01139 12.0778 6.26618 11.663 6.3601 11.2H9.6401C9.73402 11.663 9.9888 12.0778 10.3593 12.3709C10.7298 12.664 11.1921 12.8165 11.6643 12.8014C12.1365 12.7862 12.588 12.6044 12.939 12.2882C13.2899 11.9719 13.5176 11.5417 13.5817 11.0736ZM5.5537 4.00001H6.4001V6.40001H3.8881L4.4145 4.82081C4.49414 4.5817 4.64704 4.37373 4.85152 4.2264C5.056 4.07908 5.30167 3.99987 5.5537 4.00001ZM9.3073 4.61761L10.2985 6.40001H7.2001V4.00001H8.2585C8.47251 4.00008 8.6826 4.05738 8.86701 4.16598C9.05142 4.27457 9.20343 4.4305 9.3073 4.61761ZM3.2001 10.8C3.2001 10.6424 3.23114 10.4864 3.29144 10.3408C3.35175 10.1952 3.44014 10.0629 3.55157 9.95148C3.663 9.84005 3.79529 9.75166 3.94088 9.69136C4.08647 9.63105 4.24251 9.60001 4.4001 9.60001C4.55768 9.60001 4.71373 9.63105 4.85932 9.69136C5.00491 9.75166 5.1372 9.84005 5.24863 9.95148C5.36006 10.0629 5.44845 10.1952 5.50875 10.3408C5.56906 10.4864 5.6001 10.6424 5.6001 10.8C5.6001 11.1183 5.47367 11.4235 5.24863 11.6485C5.02358 11.8736 4.71836 12 4.4001 12C4.08184 12 3.77661 11.8736 3.55157 11.6485C3.32653 11.4235 3.2001 11.1183 3.2001 10.8ZM10.4001 10.8C10.4001 10.4818 10.5265 10.1765 10.7516 9.95148C10.9766 9.72644 11.2818 9.60001 11.6001 9.60001C11.9184 9.60001 12.2236 9.72644 12.4486 9.95148C12.6737 10.1765 12.8001 10.4818 12.8001 10.8C12.8001 11.1183 12.6737 11.4235 12.4486 11.6485C12.2236 11.8736 11.9184 12 11.6001 12C11.2818 12 10.9766 11.8736 10.7516 11.6485C10.5265 11.4235 10.4001 11.1183 10.4001 10.8Z"
        fill="currentColor" />
</svg>