<svg width="29" height="29" viewBox="0 0 29 29" fill="none" xmlns="http://www.w3.org/2000/svg">
<path d="M20.6684 21.5961C19.3826 21.5961 18.3517 22.627 18.3517 23.9128C18.3517 24.5272 18.5957 25.1165 19.0302 25.5509C19.4647 25.9854 20.0539 26.2295 20.6684 26.2295C21.2828 26.2295 21.872 25.9854 22.3065 25.5509C22.741 25.1165 22.9851 24.5272 22.9851 23.9128C22.9851 23.2984 22.741 22.7091 22.3065 22.2746C21.872 21.8402 21.2828 21.5961 20.6684 21.5961ZM2.13477 3.0625V5.3792H4.45146L8.62152 14.1711L7.04617 17.009C6.87242 17.3334 6.76816 17.7156 6.76816 18.121C6.76816 18.7355 7.01224 19.3247 7.44671 19.7592C7.88118 20.1937 8.47044 20.4377 9.08486 20.4377H22.9851V18.121H9.57137C9.49457 18.121 9.42091 18.0905 9.3666 18.0362C9.31229 17.9819 9.28178 17.9083 9.28178 17.8315C9.28178 17.7735 9.29337 17.7272 9.31653 17.6925L10.359 15.8043H18.9888C19.8575 15.8043 20.622 15.3178 21.0159 14.6112L25.1628 7.11672C25.2438 6.93139 25.3018 6.73447 25.3018 6.53755C25.3018 6.23034 25.1797 5.9357 24.9625 5.71847C24.7453 5.50124 24.4506 5.3792 24.1434 5.3792H7.01142L5.92257 3.0625M9.08486 21.5961C7.7991 21.5961 6.76816 22.627 6.76816 23.9128C6.76816 24.5272 7.01224 25.1165 7.44671 25.5509C7.88118 25.9854 8.47044 26.2295 9.08486 26.2295C9.69929 26.2295 10.2886 25.9854 10.723 25.5509C11.1575 25.1165 11.4016 24.5272 11.4016 23.9128C11.4016 23.2984 11.1575 22.7091 10.723 22.2746C10.2886 21.8402 9.69929 21.5961 9.08486 21.5961Z" fill="#2DBA9D"/>
<g clip-path="url(#clip0_8999_39050)">
<path d="M20.6684 21.5961C19.3826 21.5961 18.3517 22.627 18.3517 23.9128C18.3517 24.5272 18.5957 25.1165 19.0302 25.5509C19.4647 25.9854 20.0539 26.2295 20.6684 26.2295C21.2828 26.2295 21.872 25.9854 22.3065 25.5509C22.741 25.1165 22.9851 24.5272 22.9851 23.9128C22.9851 23.2984 22.741 22.7091 22.3065 22.2746C21.872 21.8402 21.2828 21.5961 20.6684 21.5961ZM2.13477 3.0625V5.3792H4.45146L8.62152 14.1711L7.04617 17.009C6.87242 17.3334 6.76816 17.7156 6.76816 18.121C6.76816 18.7355 7.01224 19.3247 7.44671 19.7592C7.88118 20.1937 8.47044 20.4377 9.08486 20.4377H22.9851V18.121H9.57137C9.49457 18.121 9.42091 18.0905 9.3666 18.0362C9.31229 17.9819 9.28178 17.9083 9.28178 17.8315C9.28178 17.7735 9.29337 17.7272 9.31653 17.6925L10.359 15.8043H18.9888C19.8575 15.8043 20.622 15.3178 21.0159 14.6112L25.1628 7.11672C25.2438 6.93139 25.3018 6.73447 25.3018 6.53755C25.3018 6.23034 25.1797 5.9357 24.9625 5.71847C24.7453 5.50124 24.4506 5.3792 24.1434 5.3792H7.01142L5.92257 3.0625M9.08486 21.5961C7.7991 21.5961 6.76816 22.627 6.76816 23.9128C6.76816 24.5272 7.01224 25.1165 7.44671 25.5509C7.88118 25.9854 8.47044 26.2295 9.08486 26.2295C9.69929 26.2295 10.2886 25.9854 10.723 25.5509C11.1575 25.1165 11.4016 24.5272 11.4016 23.9128C11.4016 23.2984 11.1575 22.7091 10.723 22.2746C10.2886 21.8402 9.69929 21.5961 9.08486 21.5961Z" fill="#F8C41F"/>
</g>
<defs>
<clipPath id="clip0_8999_39050">
<rect width="27.8004" height="6.9501" fill="white" transform="translate(0.976562 21.5977)"/>
</clipPath>
</defs>
</svg>
