<svg width="16" height="16" viewBox="0 0 16 16" fill="none" xmlns="http://www.w3.org/2000/svg">
<g clip-path="url(#clip0_558_1208)">
<path opacity="0.12" d="M7.99992 14.6666C11.6818 14.6666 14.6666 11.6819 14.6666 7.99996C14.6666 4.31807 11.6818 1.3333 7.99992 1.3333C4.31802 1.3333 1.33325 4.31807 1.33325 7.99996C1.33325 11.6819 4.31802 14.6666 7.99992 14.6666Z" fill="#19ACB6"/>
<path d="M7.99992 3.99996V7.99996L10.6666 9.3333M14.6666 7.99996C14.6666 11.6819 11.6818 14.6666 7.99992 14.6666C4.31802 14.6666 1.33325 11.6819 1.33325 7.99996C1.33325 4.31807 4.31802 1.3333 7.99992 1.3333C11.6818 1.3333 14.6666 4.31807 14.6666 7.99996Z" stroke="#19ACB6" stroke-width="1.39583" stroke-linecap="round" stroke-linejoin="round"/>
</g>
<defs>
<clipPath id="clip0_558_1208">
<rect width="16" height="16" fill="white"/>
</clipPath>
</defs>
</svg>
