<svg width="14" height="14" viewBox="0 0 14 14" fill="none" xmlns="http://www.w3.org/2000/svg">
<path opacity="0.4" d="M4.66663 9.33332V10.9667C4.66663 11.6201 4.66663 11.9467 4.79379 12.1963C4.90564 12.4158 5.08411 12.5943 5.30364 12.7062C5.5532 12.8333 5.8799 12.8333 6.53329 12.8333H10.9666C11.62 12.8333 11.9467 12.8333 12.1963 12.7062C12.4158 12.5943 12.5943 12.4158 12.7061 12.1963C12.8333 11.9467 12.8333 11.6201 12.8333 10.9667V6.53332C12.8333 5.87993 12.8333 5.55323 12.7061 5.30367C12.5943 5.08415 12.4158 4.90567 12.1963 4.79382C11.9467 4.66666 11.62 4.66666 10.9666 4.66666H9.33329" stroke="#37394A" stroke-width="1.16667" stroke-linecap="round" stroke-linejoin="round"/>
<path d="M1.16663 3.03332C1.16663 2.37993 1.16663 2.05323 1.29379 1.80367C1.40564 1.58415 1.58411 1.40567 1.80364 1.29382C2.0532 1.16666 2.3799 1.16666 3.03329 1.16666H7.46663C8.12002 1.16666 8.44672 1.16666 8.69628 1.29382C8.9158 1.40567 9.09428 1.58415 9.20613 1.80367C9.33329 2.05323 9.33329 2.37993 9.33329 3.03332V7.46666C9.33329 8.12005 9.33329 8.44675 9.20613 8.69631C9.09428 8.91583 8.9158 9.09431 8.69628 9.20616C8.44672 9.33332 8.12002 9.33332 7.46663 9.33332H3.03329C2.3799 9.33332 2.0532 9.33332 1.80364 9.20616C1.58411 9.09431 1.40564 8.91583 1.29379 8.69631C1.16663 8.44675 1.16663 8.12005 1.16663 7.46666V3.03332Z" stroke="#37394A" stroke-width="1.16667" stroke-linecap="round" stroke-linejoin="round"/>
</svg>
