<svg width="20" height="20" viewBox="0 0 20 20" fill="none" xmlns="http://www.w3.org/2000/svg">
<path d="M18.3337 14.1687C18.3336 15.3084 17.9442 16.4139 17.2299 17.302C16.5156 18.1901 15.5193 18.8075 14.4062 19.052L13.8745 17.457C14.3614 17.377 14.8245 17.1898 15.2303 16.9091C15.6361 16.6284 15.9745 16.2611 16.2212 15.8337H14.167C13.725 15.8337 13.301 15.6581 12.9885 15.3455C12.6759 15.0329 12.5003 14.609 12.5003 14.167V10.8337C12.5003 10.3916 12.6759 9.96771 12.9885 9.65515C13.301 9.34259 13.725 9.16699 14.167 9.16699H16.6153C16.412 7.55607 15.6278 6.07472 14.4098 5.00089C13.1919 3.92706 11.624 3.33456 10.0003 3.33456C8.37662 3.33456 6.80871 3.92706 5.5908 5.00089C4.37289 6.07472 3.58868 7.55607 3.38533 9.16699H5.83366C6.27569 9.16699 6.69961 9.34259 7.01217 9.65515C7.32473 9.96771 7.50033 10.3916 7.50033 10.8337V14.167C7.50033 14.609 7.32473 15.0329 7.01217 15.3455C6.69961 15.6581 6.27569 15.8337 5.83366 15.8337H3.33366C2.89163 15.8337 2.46771 15.6581 2.15515 15.3455C1.84259 15.0329 1.66699 14.609 1.66699 14.167V10.0003C1.66699 5.39783 5.39783 1.66699 10.0003 1.66699C14.6028 1.66699 18.3337 5.39783 18.3337 10.0003V14.1687Z" fill="#37394A"/>
</svg>
