<svg width="14" height="14" viewBox="0 0 14 14" fill="none" xmlns="http://www.w3.org/2000/svg">
<path d="M9.91667 5.25016L6.41667 8.75016M6.41667 5.25016L9.91667 8.75016M1.58667 7.56016L4.10667 10.9202C4.312 11.1939 4.41467 11.3308 4.54478 11.4296C4.66002 11.517 4.79052 11.5823 4.92962 11.622C5.08667 11.6668 5.25778 11.6668 5.6 11.6668H10.0333C11.0134 11.6668 11.5035 11.6668 11.8778 11.4761C12.2071 11.3083 12.4748 11.0406 12.6426 10.7113C12.8333 10.337 12.8333 9.84692 12.8333 8.86683V5.1335C12.8333 4.1534 12.8333 3.66336 12.6426 3.28901C12.4748 2.95973 12.2071 2.69201 11.8778 2.52423C11.5035 2.3335 11.0134 2.3335 10.0333 2.3335H5.6C5.25778 2.3335 5.08667 2.3335 4.92962 2.37835C4.79052 2.41808 4.66002 2.48332 4.54478 2.57077C4.41467 2.6695 4.312 2.80639 4.10667 3.08016L1.58667 6.44016C1.43605 6.64098 1.36075 6.74139 1.33172 6.85166C1.30609 6.94901 1.30609 7.05132 1.33172 7.14866C1.36075 7.25894 1.43605 7.35935 1.58667 7.56016Z" stroke="#DD2E44" stroke-width="1.4" stroke-linecap="round" stroke-linejoin="round"/>
</svg>
