<svg width="14" height="14" viewBox="0 0 14 14" fill="none" xmlns="http://www.w3.org/2000/svg">
<path fill-rule="evenodd" clip-rule="evenodd" d="M12.6435 10.0694C12.8812 10.2868 12.8978 10.6558 12.6804 10.8936L12.097 11.5318C11.6831 11.9845 11.1099 12.25 10.5 12.25C9.89021 12.25 9.31723 11.9847 8.90334 11.5322C8.69805 11.3087 8.43188 11.1942 8.16667 11.1942C7.90133 11.1942 7.63504 11.3088 7.42971 11.5326C7.21191 11.7699 6.8429 11.7858 6.60551 11.568C6.36813 11.3502 6.35225 10.9812 6.57005 10.7438C6.98441 10.2922 7.55724 10.0275 8.16667 10.0275C8.77609 10.0275 9.34892 10.2922 9.76328 10.7438L9.76395 10.7446C9.96884 10.9686 10.2349 11.0833 10.5 11.0833C10.765 11.0833 11.0311 10.9686 11.2359 10.7446L11.8193 10.1064C12.0367 9.86863 12.4057 9.85208 12.6435 10.0694Z" fill="#19ACB6"/>
<path fill-rule="evenodd" clip-rule="evenodd" d="M9.21243 1.62918C9.92349 0.918123 11.0763 0.918122 11.7874 1.62918C12.4984 2.34023 12.4984 3.49308 11.7874 4.20414L4.45913 11.5324C4.44758 11.544 4.43613 11.5554 4.42478 11.5668C4.2571 11.7348 4.10927 11.8829 3.93104 11.9921C3.77446 12.0881 3.60376 12.1588 3.42519 12.2016C3.22193 12.2504 3.01266 12.2502 2.7753 12.25C2.75924 12.25 2.74304 12.25 2.72671 12.25H1.7499C1.42773 12.25 1.16656 11.9888 1.16656 11.6667V10.6899C1.16656 10.6735 1.16655 10.6573 1.16653 10.6413C1.16631 10.4039 1.16612 10.1946 1.21492 9.99138C1.25779 9.81281 1.32849 9.64211 1.42444 9.48553C1.53366 9.3073 1.68178 9.15946 1.84977 8.99178C1.86114 8.98043 1.87261 8.96899 1.88415 8.95744L9.21243 1.62918Z" fill="#19ACB6"/>
</svg>
