<svg width="14" height="14" viewBox="0 0 14 14" fill="none" xmlns="http://www.w3.org/2000/svg">
<rect x="0.5" y="0.5" width="13" height="13" rx="6.5" stroke="#1A1A1A"/>
<path d="M9.85146 6.44914C9.84318 6.51237 9.81662 6.57181 9.77504 6.62017L6.2271 10.5174C6.18211 10.5756 6.11959 10.6177 6.04879 10.6375C6.01846 10.6412 5.98814 10.6412 5.95782 10.6375C5.90633 10.6373 5.85548 10.6261 5.80862 10.6048C5.73567 10.5705 5.67752 10.5111 5.64487 10.4374C5.61315 10.3718 5.60418 10.2976 5.6194 10.2263L5.93234 7.73004H4.61142C4.53591 7.72534 4.46191 7.70684 4.39308 7.67545C4.32571 7.63997 4.26799 7.58864 4.22488 7.52588C4.18177 7.46312 4.15457 7.39081 4.14564 7.3152C4.138 7.23845 4.14924 7.161 4.17839 7.08959L5.5539 3.65081C5.59029 3.56384 5.65069 3.48924 5.72856 3.43612C5.80649 3.38546 5.89762 3.35888 5.99057 3.3597H8.62514C8.70119 3.36115 8.77579 3.37971 8.84348 3.41428C8.91189 3.45249 8.97047 3.50635 9.01451 3.57076C9.05526 3.63589 9.08001 3.70903 9.08728 3.78545C9.09475 3.86135 9.0822 3.93788 9.05089 4.00743L8.18119 6.0343H9.5094C9.5754 6.03651 9.63955 6.05664 9.69498 6.09252C9.75342 6.13159 9.7993 6.18674 9.82707 6.25131C9.85484 6.31589 9.86331 6.38713 9.85146 6.45642V6.44914Z" fill="#1A1A1A"/>
</svg>
