<svg width="20" height="20" viewBox="0 0 20 20" fill="none" xmlns="http://www.w3.org/2000/svg">
<path fill-rule="evenodd" clip-rule="evenodd" d="M3.08958 1.91075C2.76414 1.58531 2.23651 1.58531 1.91107 1.91075C1.58563 2.23618 1.58563 2.76382 1.91107 3.08926L5.53962 6.71781L2.75225 10.0627C2.62365 10.2169 2.4934 10.3732 2.39856 10.5105C2.30887 10.6403 2.14512 10.8956 2.14006 11.2312C2.13426 11.6153 2.30544 11.9808 2.60425 12.2223C2.86526 12.4332 3.16624 12.4708 3.32341 12.4851C3.4896 12.5001 3.69302 12.5001 3.89385 12.5L9.05633 12.5L8.34008 18.23C8.2942 18.5971 8.49581 18.9505 8.83515 19.0978C9.1745 19.2451 9.57033 19.151 9.80716 18.8668L13.3897 14.5678L16.9111 18.0893C17.2365 18.4147 17.7641 18.4147 18.0896 18.0893C18.415 17.7638 18.415 17.2362 18.0896 16.9107C13.0896 11.9107 8.0896 6.91077 3.08958 1.91075Z" fill="#37394A"/>
<path d="M15.5324 11.9966L17.2484 9.93742C17.377 9.78316 17.5072 9.62691 17.6021 9.48961C17.6918 9.35975 17.8555 9.10444 17.8606 8.7689C17.8664 8.38476 17.6952 8.01929 17.3964 7.77782C17.1354 7.56689 16.8344 7.52925 16.6772 7.51502C16.511 7.49997 16.3076 7.50001 16.1068 7.50005L11.0359 7.50005L15.5324 11.9966Z" fill="#37394A"/>
<path d="M10.9545 7.41862L11.6605 1.77008C11.7064 1.403 11.5048 1.04961 11.1655 0.902298C10.8261 0.754991 10.4303 0.849034 10.1935 1.13323L7.68238 4.14653L10.9545 7.41862Z" fill="#37394A"/>
</svg>
