<svg width="16" height="16" viewBox="0 0 16 16" fill="none" xmlns="http://www.w3.org/2000/svg">
<rect x="0.571429" y="0.571429" width="14.8571" height="14.8571" rx="7.42857" stroke="#19ACB6" stroke-width="1.14286"/>
<g clip-path="url(#clip0_381_8034)">
<path d="M11.2585 7.37086C11.249 7.44313 11.2186 7.51106 11.1711 7.56632L7.11633 12.0204C7.06492 12.0868 6.99346 12.1349 6.91255 12.1576C6.8779 12.1618 6.84324 12.1618 6.80858 12.1576C6.74974 12.1573 6.69162 12.1446 6.63807 12.1202C6.5547 12.081 6.48825 12.0131 6.45093 11.9289C6.41468 11.8539 6.40443 11.7691 6.42182 11.6877L6.77947 8.83475H5.26984C5.18355 8.82938 5.09898 8.80824 5.02032 8.77236C4.94332 8.73182 4.87735 8.67315 4.82808 8.60142C4.77881 8.5297 4.74773 8.44706 4.73752 8.36065C4.72879 8.27293 4.74164 8.18442 4.77495 8.1028L6.34696 4.17278C6.38855 4.07338 6.45758 3.98813 6.54658 3.92741C6.63565 3.86951 6.73979 3.83914 6.84601 3.84007H9.85696C9.94387 3.84174 10.0291 3.86295 10.1065 3.90246C10.1847 3.94612 10.2516 4.00767 10.3019 4.08128C10.3485 4.15572 10.3768 4.23932 10.3851 4.32665C10.3936 4.41339 10.3793 4.50085 10.3435 4.58033L9.34959 6.89676H10.8675C10.943 6.89929 11.0163 6.92229 11.0796 6.9633C11.1464 7.00795 11.1989 7.07098 11.2306 7.14478C11.2623 7.21858 11.272 7.29999 11.2585 7.37918V7.37086Z" fill="#19ACB6"/>
</g>
<defs>
<clipPath id="clip0_381_8034">
<rect width="9.98103" height="9.98103" fill="white" transform="translate(3.00928 3.00949)"/>
</clipPath>
</defs>
</svg>
