<svg width="20" height="20" viewBox="0 0 20 20" fill="none" xmlns="http://www.w3.org/2000/svg">
<path d="M11.6603 1.77008C11.7062 1.403 11.5046 1.04961 11.1652 0.902298C10.8259 0.754991 10.43 0.849034 10.1932 1.13323L2.75198 10.0627C2.62338 10.2169 2.49313 10.3732 2.3983 10.5105C2.30861 10.6403 2.14485 10.8957 2.13979 11.2312C2.134 11.6153 2.30517 11.9808 2.60399 12.2223C2.865 12.4332 3.16597 12.4709 3.32314 12.4851C3.48933 12.5001 3.69274 12.5001 3.89356 12.5001L9.05606 12.5L8.33982 18.23C8.29393 18.5971 8.49554 18.9505 8.83489 19.0978C9.17423 19.2451 9.57007 19.1511 9.8069 18.8669L17.2481 9.93742C17.3767 9.78316 17.507 9.62691 17.6018 9.48961C17.6915 9.35975 17.8552 9.10444 17.8603 8.7689C17.8661 8.38475 17.6949 8.01929 17.3961 7.77782C17.1351 7.56689 16.8341 7.52925 16.677 7.51502C16.5108 7.49997 16.3073 7.50001 16.1065 7.50005L10.944 7.50005L11.6603 1.77008Z" fill="white"/>
</svg>
