<svg width="14" height="15" viewBox="0 0 14 15" fill="none" xmlns="http://www.w3.org/2000/svg">
<g clip-path="url(#clip0_529_8870)">
<path d="M0.875 2.25C0.875 1.78587 1.05937 1.34075 1.38756 1.01256C1.71575 0.684374 2.16087 0.5 2.625 0.5L7.875 0.5C8.33913 0.5 8.78425 0.684374 9.11244 1.01256C9.44063 1.34075 9.625 1.78587 9.625 2.25V9.25C10.0891 9.25 10.5342 9.43437 10.8624 9.76256C11.1906 10.0908 11.375 10.5359 11.375 11V11.4375C11.375 11.5535 11.4211 11.6648 11.5031 11.7469C11.5852 11.8289 11.6965 11.875 11.8125 11.875C11.9285 11.875 12.0398 11.8289 12.1219 11.7469C12.2039 11.6648 12.25 11.5535 12.25 11.4375V8.375C12.25 8.14925 12.159 8.04513 11.9376 7.81938L11.9315 7.81238C11.7066 7.584 11.375 7.24625 11.375 6.625V4C11.3749 3.94251 11.3861 3.88556 11.408 3.83241C11.43 3.77926 11.4621 3.73095 11.5028 3.69025L11.9403 3.25275C11.9809 3.21201 12.0292 3.17968 12.0823 3.15763C12.1355 3.13557 12.1925 3.12422 12.25 3.12422C12.3075 3.12422 12.3645 3.13557 12.4177 3.15763C12.4708 3.17968 12.5191 3.21201 12.5597 3.25275L12.9972 3.69025C13.0379 3.73095 13.07 3.77926 13.092 3.83241C13.1139 3.88556 13.1251 3.94251 13.125 4V11.4375C13.125 11.7856 12.9867 12.1194 12.7406 12.3656C12.4944 12.6117 12.1606 12.75 11.8125 12.75C11.4644 12.75 11.1306 12.6117 10.8844 12.3656C10.6383 12.1194 10.5 11.7856 10.5 11.4375V11C10.5 10.7679 10.4078 10.5454 10.2437 10.3813C10.0796 10.2172 9.85706 10.125 9.625 10.125V13.625H10.0625C10.1785 13.625 10.2898 13.6711 10.3719 13.7531C10.4539 13.8352 10.5 13.9465 10.5 14.0625C10.5 14.1785 10.4539 14.2898 10.3719 14.3719C10.2898 14.4539 10.1785 14.5 10.0625 14.5H0.4375C0.321468 14.5 0.210188 14.4539 0.128141 14.3719C0.0460936 14.2898 0 14.1785 0 14.0625C0 13.9465 0.0460936 13.8352 0.128141 13.7531C0.210188 13.6711 0.321468 13.625 0.4375 13.625H0.875V2.25ZM2.625 2.6875V7.0625C2.625 7.17853 2.67109 7.28981 2.75314 7.37186C2.83519 7.45391 2.94647 7.5 3.0625 7.5H7.4375C7.55353 7.5 7.66481 7.45391 7.74686 7.37186C7.82891 7.28981 7.875 7.17853 7.875 7.0625V2.6875C7.875 2.57147 7.82891 2.46019 7.74686 2.37814C7.66481 2.29609 7.55353 2.25 7.4375 2.25H3.0625C2.94647 2.25 2.83519 2.29609 2.75314 2.37814C2.67109 2.46019 2.625 2.57147 2.625 2.6875ZM4.92712 11.4025H3.6225V10.6211H4.85013V10.1793H3.6225V9.43112H4.92625V8.95862H3.04937V11.875H4.92712V11.4025ZM6.07863 11.875H6.77338L7.74113 8.95862H7.09975L6.45225 11.2467H6.42513L5.7715 8.95862H5.103L6.07863 11.875Z" fill="#37394A"/>
</g>
<defs>
<clipPath id="clip0_529_8870">
<rect width="14" height="14" fill="white" transform="translate(0 0.5)"/>
</clipPath>
</defs>
</svg>
