<svg width="14" height="14" viewBox="0 0 14 14" fill="none" xmlns="http://www.w3.org/2000/svg">
    <g clip-path="url(#clip0_601_12292)">
        <path
            d="M0.875 1.75C0.875 1.28587 1.05937 0.840752 1.38756 0.512563C1.71575 0.184374 2.16087 0 2.625 0L7.875 0C8.33913 0 8.78425 0.184374 9.11244 0.512563C9.44063 0.840752 9.625 1.28587 9.625 1.75V8.75C10.0891 8.75 10.5342 8.93437 10.8624 9.26256C11.1906 9.59075 11.375 10.0359 11.375 10.5V10.9375C11.375 11.0535 11.4211 11.1648 11.5031 11.2469C11.5852 11.3289 11.6965 11.375 11.8125 11.375C11.9285 11.375 12.0398 11.3289 12.1219 11.2469C12.2039 11.1648 12.25 11.0535 12.25 10.9375V7.875C12.25 7.64925 12.159 7.54513 11.9376 7.31938L11.9315 7.31238C11.7066 7.084 11.375 6.74625 11.375 6.125V3.5C11.3749 3.44251 11.3861 3.38556 11.408 3.33241C11.43 3.27926 11.4621 3.23095 11.5028 3.19025L11.9403 2.75275C11.9809 2.71201 12.0292 2.67968 12.0823 2.65763C12.1355 2.63557 12.1925 2.62422 12.25 2.62422C12.3075 2.62422 12.3645 2.63557 12.4177 2.65763C12.4708 2.67968 12.5191 2.71201 12.5597 2.75275L12.9972 3.19025C13.0379 3.23095 13.07 3.27926 13.092 3.33241C13.1139 3.38556 13.1251 3.44251 13.125 3.5V10.9375C13.125 11.2856 12.9867 11.6194 12.7406 11.8656C12.4944 12.1117 12.1606 12.25 11.8125 12.25C11.4644 12.25 11.1306 12.1117 10.8844 11.8656C10.6383 11.6194 10.5 11.2856 10.5 10.9375V10.5C10.5 10.2679 10.4078 10.0454 10.2437 9.88128C10.0796 9.71719 9.85706 9.625 9.625 9.625V13.125H10.0625C10.1785 13.125 10.2898 13.1711 10.3719 13.2531C10.4539 13.3352 10.5 13.4465 10.5 13.5625C10.5 13.6785 10.4539 13.7898 10.3719 13.8719C10.2898 13.9539 10.1785 14 10.0625 14H0.4375C0.321468 14 0.210188 13.9539 0.128141 13.8719C0.0460936 13.7898 0 13.6785 0 13.5625C0 13.4465 0.0460936 13.3352 0.128141 13.2531C0.210188 13.1711 0.321468 13.125 0.4375 13.125H0.875V1.75ZM2.625 2.1875V6.5625C2.625 6.67853 2.67109 6.78981 2.75314 6.87186C2.83519 6.95391 2.94647 7 3.0625 7H7.4375C7.55353 7 7.66481 6.95391 7.74686 6.87186C7.82891 6.78981 7.875 6.67853 7.875 6.5625V2.1875C7.875 2.07147 7.82891 1.96019 7.74686 1.87814C7.66481 1.79609 7.55353 1.75 7.4375 1.75H3.0625C2.94647 1.75 2.83519 1.79609 2.75314 1.87814C2.67109 1.96019 2.625 2.07147 2.625 2.1875ZM4.92712 10.9025H3.6225V10.1211H4.85013V9.67925H3.6225V8.93112H4.92625V8.45862H3.04937V11.375H4.92712V10.9025ZM6.07863 11.375H6.77338L7.74113 8.45862H7.09975L6.45225 10.7467H6.42513L5.7715 8.45862H5.103L6.07863 11.375Z"
            fill="currentColor" />
    </g>
    <defs>
        <clipPath id="clip0_601_12292">
            <rect width="14" height="14" fill="white" />
        </clipPath>
    </defs>
</svg>