<svg width="36" height="36" viewBox="0 0 36 36" fill="none" xmlns="http://www.w3.org/2000/svg">
<path fill-rule="evenodd" clip-rule="evenodd" d="M18 34C14.8355 34 11.7421 33.0616 9.11088 31.3035C6.47969 29.5454 4.42894 27.0465 3.21793 24.1229C2.00693 21.1993 1.69008 17.9822 2.30744 14.8786C2.92481 11.7749 4.44866 8.92393 6.6863 6.6863C8.92393 4.44866 11.7749 2.92481 14.8786 2.30744C17.9822 1.69008 21.1993 2.00693 24.1229 3.21793C27.0465 4.42894 29.5454 6.47969 31.3035 9.11088C33.0616 11.7421 34 14.8355 34 18C34.0029 20.102 33.591 22.1838 32.788 24.1264C31.9849 26.0689 30.8065 27.8338 29.3202 29.3202C27.8338 30.8065 26.0689 31.9849 24.1264 32.788C22.1838 33.591 20.102 34.0029 18 34Z" fill="#01AED6"/>
<path fill-rule="evenodd" clip-rule="evenodd" d="M26.9076 16.6819C26.7329 15.9493 26.32 15.2954 25.7336 14.8229C25.1523 14.3377 24.4337 14.0467 23.6786 13.9909H12.8646C12.7641 13.9987 12.6632 13.9819 12.5706 13.9419C12.5143 13.9382 12.4592 13.9234 12.4087 13.8981C12.3583 13.8729 12.3133 13.8378 12.2766 13.7949C12.1846 13.7376 12.1143 13.6514 12.0766 13.5499C12.0368 13.4576 12.02 13.3571 12.0276 13.2569C12.0198 13.1404 12.0365 13.0235 12.0766 12.9139C12.1275 12.8205 12.1953 12.7375 12.2766 12.6689L12.5706 12.5219C12.6706 12.5219 12.7706 12.4729 12.8646 12.5219H23.3846C23.3846 12.5219 23.3386 9.68188 19.8126 9.68188H14.1386C11.7386 9.68188 9.1476 11.0029 9.0006 14.1349C8.85397 16.7748 8.85397 19.4209 9.0006 22.0609C9.1476 23.8709 9.6856 25.9749 13.6486 26.3669C16.9727 26.6793 20.3216 26.6122 23.6306 26.1669C24.5054 25.9283 25.2891 25.4342 25.8816 24.7479C26.5007 24.0397 26.8629 23.1434 26.9096 22.2039C27.0536 20.0059 27.2986 18.2449 26.9076 16.6819ZM24.0696 20.1069V21.0859C24.0738 21.177 24.0581 21.268 24.0235 21.3524C23.989 21.4369 23.9365 21.5128 23.8696 21.5749C23.7498 21.6901 23.5941 21.7606 23.4286 21.7749C23.338 21.7771 23.248 21.7608 23.1639 21.7272C23.0798 21.6935 23.0034 21.6432 22.9393 21.5791C22.8753 21.5151 22.8249 21.4387 22.7913 21.3546C22.7576 21.2705 22.7414 21.1804 22.7436 21.0899V20.1109C22.6008 19.9794 22.4988 19.8097 22.4496 19.6219C22.3761 19.4162 22.3761 19.1915 22.4496 18.9859C22.5366 18.7922 22.6715 18.6239 22.8416 18.4969C23.0125 18.3724 23.2172 18.3027 23.4286 18.2969C23.6368 18.3184 23.8375 18.3867 24.0156 18.4969C24.1718 18.6259 24.29 18.7949 24.3576 18.9859C24.4487 19.1854 24.4661 19.4108 24.4066 19.6219C24.3394 19.8098 24.223 19.9762 24.0696 20.1039V20.1069Z" fill="white"/>
</svg>
