<svg width="36" height="36" viewBox="0 0 36 36" fill="none" xmlns="http://www.w3.org/2000/svg">
<path d="M18 2.99698C26.286 2.99698 33.003 9.71398 33.003 18C33.003 26.2845 26.286 33 18 33C9.714 33 3 26.2845 3 18C2.9985 9.71398 9.714 2.99698 18 2.99698ZM17.994 15.372C17.6264 15.3725 17.2718 15.508 16.9975 15.7527C16.7232 15.9974 16.5483 16.3343 16.506 16.6995L16.4955 16.8735L16.5015 25.1265L16.5105 25.3005C16.5524 25.6663 16.7275 26.004 17.0023 26.2491C17.2771 26.4943 17.6325 26.6297 18.0007 26.6297C18.369 26.6297 18.7244 26.4943 18.9992 26.2491C19.274 26.004 19.4491 25.6663 19.491 25.3005L19.5 25.125L19.494 16.872L19.4835 16.6965C19.4401 16.3316 19.2644 15.9954 18.9895 15.7515C18.7147 15.5076 18.3599 15.3731 17.9925 15.3735M18 9.74998C17.5021 9.74998 17.0246 9.94776 16.6726 10.2998C16.3205 10.6519 16.1227 11.1294 16.1227 11.6272C16.1227 12.1251 16.3205 12.6026 16.6726 12.9546C17.0246 13.3067 17.5021 13.5045 18 13.5045C18.4979 13.5045 18.9754 13.3067 19.3274 12.9546C19.6795 12.6026 19.8773 12.1251 19.8773 11.6272C19.8773 11.1294 19.6795 10.6519 19.3274 10.2998C18.9754 9.94776 18.4979 9.74998 18 9.74998Z" fill="#18ACB6"/>
</svg>
