<svg width="16" height="16" viewBox="0 0 16 16" fill="none" xmlns="http://www.w3.org/2000/svg">
    <path
        d="M8.00004 1.332C11.6827 1.332 14.668 4.31733 14.668 8C14.668 11.682 11.6827 14.6667 8.00004 14.6667C4.31737 14.6667 1.33337 11.682 1.33337 8C1.33271 4.31733 4.31737 1.332 8.00004 1.332ZM7.99737 6.832C7.834 6.83222 7.67639 6.89243 7.55447 7.0012C7.43256 7.10996 7.35483 7.25971 7.33604 7.422L7.33137 7.49933L7.33404 11.1673L7.33804 11.2447C7.35667 11.4073 7.43447 11.5573 7.55661 11.6663C7.67875 11.7752 7.8367 11.8354 8.00037 11.8354C8.16404 11.8354 8.322 11.7752 8.44414 11.6663C8.56628 11.5573 8.64408 11.4073 8.66271 11.2447L8.66671 11.1667L8.66404 7.49867L8.65937 7.42067C8.6401 7.25851 8.56199 7.10906 8.43984 7.00067C8.31769 6.89229 8.16001 6.83251 7.99671 6.83267M8.00004 4.33333C7.77876 4.33333 7.56655 4.42124 7.41008 4.5777C7.25361 4.73417 7.16571 4.94639 7.16571 5.16767C7.16571 5.38895 7.25361 5.60116 7.41008 5.75763C7.56655 5.9141 7.77876 6.002 8.00004 6.002C8.22132 6.002 8.43354 5.9141 8.59 5.75763C8.74647 5.60116 8.83437 5.38895 8.83437 5.16767C8.83437 4.94639 8.74647 4.73417 8.59 4.5777C8.43354 4.42124 8.22132 4.33333 8.00004 4.33333Z"
        fill="#3D3D41" />
</svg>