<svg width="16" height="17" viewBox="0 0 16 17" fill="none" xmlns="http://www.w3.org/2000/svg">
    <path fill-rule="evenodd" clip-rule="evenodd"
        d="M14.6666 8.50004C14.6666 10.2682 13.9642 11.9638 12.714 13.2141C11.4637 14.4643 9.76803 15.1667 7.99992 15.1667C6.23181 15.1667 4.53612 14.4643 3.28587 13.2141C2.03563 11.9638 1.33325 10.2682 1.33325 8.50004C1.33325 6.73193 2.03563 5.03624 3.28587 3.786C4.53612 2.53575 6.23181 1.83337 7.99992 1.83337C9.76803 1.83337 11.4637 2.53575 12.714 3.786C13.9642 5.03624 14.6666 6.73193 14.6666 8.50004ZM8.83325 11.8334C8.83325 12.0544 8.74545 12.2663 8.58917 12.4226C8.43289 12.5789 8.22093 12.6667 7.99992 12.6667C7.77891 12.6667 7.56694 12.5789 7.41066 12.4226C7.25438 12.2663 7.16659 12.0544 7.16659 11.8334C7.16659 11.6124 7.25438 11.4004 7.41066 11.2441C7.56694 11.0878 7.77891 11 7.99992 11C8.22093 11 8.43289 11.0878 8.58917 11.2441C8.74545 11.4004 8.83325 11.6124 8.83325 11.8334ZM7.99992 4.33337C7.77891 4.33337 7.56694 4.42117 7.41066 4.57745C7.25438 4.73373 7.16659 4.94569 7.16659 5.16671V8.50004C7.16659 8.72105 7.25438 8.93302 7.41066 9.0893C7.56694 9.24558 7.77891 9.33337 7.99992 9.33337C8.22093 9.33337 8.43289 9.24558 8.58917 9.0893C8.74545 8.93302 8.83325 8.72105 8.83325 8.50004V5.16671C8.83325 4.94569 8.74545 4.73373 8.58917 4.57745C8.43289 4.42117 8.22093 4.33337 7.99992 4.33337Z"
        fill="#EA232A" />
</svg>