<svg width="36" height="36" viewBox="0 0 36 36" fill="none" xmlns="http://www.w3.org/2000/svg">
<path d="M30.2727 3H5.72727C4.22104 3 3 4.22104 3 5.72727V30.2727C3 31.779 4.22104 33 5.72727 33H30.2727C31.779 33 33 31.779 33 30.2727V5.72727C33 4.22104 31.779 3 30.2727 3Z" fill="#E9232A"/>
<path d="M9.08876 26.3591C8.86468 26.2559 8.65059 26.1322 8.44922 25.9896C8.49558 25.9432 10.2315 25.5805 11.4492 25.3582C14.3799 24.8452 17.3352 24.4847 20.3033 24.2782C21.5838 24.1855 26.2147 24.1828 27.0179 24.2782L27.5442 24.3382L26.951 24.3478C25.8969 24.3641 23.4806 24.5305 21.5865 24.7187C18.0696 25.0625 14.579 25.636 11.1369 26.4355C10.5479 26.58 9.99558 26.6987 9.90967 26.6987C9.62407 26.6194 9.34928 26.5054 9.09149 26.3591H9.08876ZM14.1001 22.7891C14.0469 22.6419 14.2719 22.5764 14.3729 22.5341C14.5679 22.4649 14.7456 22.3541 14.8935 22.2092C15.0414 22.0644 15.156 21.8891 15.2292 21.6955C15.2783 21.5291 15.431 20.5882 15.566 19.6037C15.701 18.6191 15.8224 17.8596 15.8388 17.8146C15.846 17.7713 15.8675 17.7316 15.8998 17.7019C15.9322 17.6723 15.9736 17.6543 16.0174 17.651C16.3829 17.651 16.6529 17.651 17.0265 17.651C17.2324 17.6319 17.1929 17.8541 17.1765 17.9973C17.1601 18.1773 17.111 18.5264 17.0538 18.9519C16.9842 19.47 16.8792 20.246 16.8219 20.6741C16.7821 21.2798 16.6377 21.8741 16.3951 22.4305C16.2651 22.722 16.0698 22.9797 15.8244 23.1837C15.579 23.3877 15.29 23.5327 14.9797 23.6073C14.8297 23.6537 14.4015 23.7982 14.3551 23.67C14.2529 23.3673 14.1833 23.1014 14.1001 22.7891ZM22.5983 22.466C22.4859 22.4003 22.3934 22.3053 22.3306 22.1912C22.2679 22.0771 22.2373 21.9481 22.242 21.818C22.2468 21.6879 22.2867 21.5615 22.3576 21.4522C22.4285 21.343 22.5277 21.2551 22.6447 21.1978C22.8016 21.1019 22.9845 21.0572 23.168 21.0699C23.3515 21.0826 23.5265 21.1521 23.6688 21.2687C24.2524 21.8441 23.3947 22.7837 22.5983 22.466ZM18.8701 22.0132C17.4206 21.7678 17.4301 20.0605 17.7547 19.0855C17.9205 18.6369 18.2235 18.2518 18.6205 17.985C19.0175 17.7182 19.4884 17.5832 19.9665 17.5991C20.6032 17.5657 21.2407 17.6499 21.8469 17.8473C21.9124 17.8882 21.881 18.2796 21.6969 19.7305C21.6321 20.378 21.5282 21.021 21.386 21.656C20.5986 22.0125 19.7255 22.136 18.8701 22.0119V22.0132ZM20.1356 20.6605C20.291 20.0891 20.3565 19.5696 20.4683 18.9696C20.4547 18.761 20.0988 18.7596 20.0088 18.7596C19.5383 18.7596 19.2601 19.02 19.1129 19.601C18.911 20.3973 19.1224 20.8405 19.7033 20.8405C19.8874 20.8241 20.0783 20.8405 20.1369 20.6619L20.1356 20.6605ZM9.54013 21.551C9.93695 20.5964 11.5283 17.171 11.9101 16.4605C11.9483 16.3904 12.0053 16.3324 12.0747 16.2929C12.1441 16.2534 12.2231 16.234 12.3029 16.2369C12.6779 16.2191 13.001 16.2246 13.3297 16.2273C13.6583 16.23 13.6733 16.3473 13.7169 16.5969C13.7606 16.8464 14.4315 20.7437 14.5801 21.6791C14.6006 21.8346 14.6388 21.8823 14.4329 21.8823C14.1492 21.8823 13.466 21.9205 13.2342 21.9028C13.2025 21.9011 13.1722 21.8894 13.1477 21.8693C13.1231 21.8492 13.1057 21.8217 13.0979 21.791C13.0695 21.6417 13.049 21.491 13.0365 21.3396L12.9942 20.8732H11.2965L11.111 21.3219C11.0456 21.4814 10.9747 21.6382 10.9188 21.7432C10.9064 21.7835 10.8832 21.8195 10.8517 21.8474C10.8202 21.8753 10.7816 21.894 10.7401 21.9014C10.5329 21.9014 9.79376 21.9273 9.51285 21.9014C9.37922 21.8387 9.50331 21.6396 9.54013 21.551ZM12.8483 19.5737C12.8238 19.3214 12.6615 18.0232 12.6233 17.831C12.6124 17.8105 12.6083 17.8173 12.5988 17.831C12.3221 18.4084 12.0763 19.0002 11.8624 19.6037C11.8501 19.646 11.8788 19.661 11.9183 19.6582C12.0547 19.6487 12.6206 19.6378 12.791 19.631C12.8401 19.631 12.8442 19.6105 12.8483 19.575V19.5737ZM22.6665 20.205C22.6883 20.036 22.736 19.575 22.7742 19.181C22.8124 18.7869 22.8697 18.1732 22.9106 17.8173C22.9379 17.5446 22.961 17.2814 22.9719 17.1437C22.9829 17.006 23.1451 17.0073 23.2447 17.0073C23.5774 17.0073 23.891 16.991 24.191 17.0196C24.3274 17.0346 24.3929 17.0646 24.3929 17.1478C24.2565 17.8296 23.771 20.1955 23.7342 20.3414C23.6974 20.4873 23.6892 20.505 23.4942 20.516C23.2556 20.516 23.0565 20.5241 22.8124 20.5228C22.676 20.5228 22.6365 20.4805 22.676 20.2105L22.6665 20.205ZM15.941 16.6964C15.9426 16.5064 16.0021 16.3213 16.1115 16.1659C16.2208 16.0105 16.375 15.8921 16.5533 15.8264C16.6819 15.7646 16.8254 15.7409 16.967 15.758C17.1086 15.7752 17.2423 15.8325 17.3524 15.9232C17.415 16.0154 17.4581 16.1193 17.4792 16.2287C17.5002 16.3381 17.4987 16.4506 17.4746 16.5594C17.4506 16.6682 17.4047 16.7709 17.3396 16.8613C17.2745 16.9517 17.1916 17.0278 17.096 17.085C16.631 17.4028 15.9492 17.2146 15.941 16.6964ZM24.2933 15.8169C24.191 15.5932 23.8651 14.8882 23.5665 14.25C23.3592 13.8494 23.1899 13.4304 23.0606 12.9982C23.081 12.9491 23.411 12.5414 23.7983 12.0941L24.4256 11.366C24.4665 11.3169 24.5142 11.2569 24.5715 11.2555C24.9506 11.2555 25.3419 11.28 25.7033 11.276C25.976 11.276 26.1124 11.2569 25.9079 11.456C25.7797 11.6114 25.5288 11.8978 25.2397 12.2114C24.8238 12.6655 24.4829 13.0487 24.4829 13.0637C24.4829 13.0787 24.7951 13.7564 25.1769 14.5637C25.4769 15.2032 25.7224 15.7746 25.8083 16.0132C25.8176 16.0286 25.8231 16.046 25.8244 16.0639C25.8256 16.0818 25.8226 16.0998 25.8156 16.1163C25.8085 16.1328 25.7976 16.1474 25.7838 16.1589C25.7699 16.1704 25.7536 16.1784 25.736 16.1823C25.5388 16.2113 25.3393 16.2218 25.1401 16.2137H24.6765C24.5619 16.226 24.4788 16.2055 24.4338 16.1087L24.2974 15.8073L24.2933 15.8169ZM10.2806 15.341C10.1001 15.2741 9.94257 15.157 9.82637 15.0036C9.71018 14.8502 9.6402 14.6669 9.62467 14.475C9.60285 14.2378 9.99558 11.0496 10.1701 10.0364C10.2124 9.79914 10.2315 9.78414 10.4619 9.78414H10.916C11.1547 9.78414 11.3715 9.78414 11.5092 9.78414C11.696 9.78414 11.6619 9.90278 11.6456 10.0419C11.6129 10.3528 11.5092 11.0264 11.3879 11.8923C11.2294 12.6049 11.1539 13.3333 11.1629 14.0632C11.2256 14.1614 11.3838 14.1778 12.4338 14.1996L13.3733 14.2132C13.5969 14.201 13.646 14.2555 13.6201 14.4532C13.5656 14.7819 13.5356 15.0437 13.4838 15.3369C13.4469 15.521 13.3256 15.4732 13.1388 15.4841L12.041 15.4991C10.6338 15.5169 10.6256 15.5169 10.2833 15.3478L10.2806 15.341ZM21.1079 15.4596C21.1176 15.1819 21.1472 14.9053 21.1965 14.6319C21.2579 14.2023 21.3888 13.2805 21.4856 12.5864C21.7583 10.6064 21.8497 10.0105 21.8947 9.78278C21.9356 9.51005 21.9356 9.5305 22.1988 9.5305H22.6174C22.781 9.5305 22.9079 9.5305 23.006 9.5305C23.3824 9.54278 23.3347 9.51005 23.2392 10.0855C23.2038 10.3037 23.0838 11.2596 22.9733 12.0655C22.7006 14.0919 22.5138 15.3382 22.481 15.431C22.0301 15.5305 21.5639 15.5402 21.1092 15.4596H21.1079ZM13.9515 15.3041C14.126 13.856 14.2924 12.761 14.4874 11.4137C14.5024 11.2528 14.6633 11.2337 14.8501 11.2337C15.0642 11.2337 15.281 11.2337 15.4842 11.2337C15.8783 11.2337 15.9806 11.2869 15.9397 11.5473C15.7651 12.8128 15.5497 13.9419 15.3233 15.2291C15.281 15.4473 15.2292 15.4405 15.0192 15.4405C14.7738 15.4405 14.3374 15.45 14.1165 15.4405C13.9856 15.4228 13.9556 15.4078 13.9515 15.3041ZM16.7292 12.0628C16.8369 11.5023 16.9119 11.415 17.0688 11.3141C17.7604 11.143 18.474 11.0781 19.1851 11.1219C19.2512 11.1307 19.3167 11.143 19.3815 11.1587C20.8269 11.4969 20.6088 13.1155 20.5092 13.8587C20.4097 14.5691 20.3129 15.2223 20.2938 15.2973C20.2597 15.4337 20.2283 15.4432 19.5738 15.4432C19.4199 15.4448 19.2661 15.4384 19.1129 15.4241C18.911 15.4105 18.8919 15.3655 18.9124 15.221C18.986 14.6264 19.0856 14.115 19.1592 13.56C19.2588 12.8032 19.2315 12.06 18.281 12.2155C18.1174 12.2564 18.0738 12.27 18.0506 12.4296C17.9333 13.1782 17.8283 13.95 17.7219 14.6823C17.6974 14.8569 17.6647 15.0396 17.6306 15.2005C17.621 15.2414 17.6169 15.2782 17.6088 15.3055C17.6006 15.3328 17.576 15.371 17.5542 15.3382C17.4015 15.0655 16.6829 15.1091 16.3829 15.311C16.2329 15.4146 16.2015 15.4691 16.2629 15.1555C16.2738 15.0887 16.2847 15.0191 16.2942 14.955C16.4429 13.991 16.5438 13.046 16.7292 12.0628ZM14.6769 10.4046C14.6489 10.2755 14.6495 10.1417 14.679 10.0129C14.7084 9.88409 14.7658 9.76333 14.8472 9.65919C14.9285 9.55506 15.0318 9.47012 15.1497 9.41041C15.2676 9.3507 15.3971 9.31767 15.5292 9.31368C16.2547 9.26596 16.4551 10.2519 15.7133 10.6991C15.2824 10.8914 14.831 10.8491 14.6769 10.4046Z" fill="white"/>
</svg>
