<svg width="57" height="21" viewBox="0 0 57 21" fill="none" xmlns="http://www.w3.org/2000/svg">
<path d="M54.4394 5.73633V11.7737L54.2951 11.5843L53.1242 10.0514L49.831 5.73633H47.8341V15.5767H49.9707V9.30885L50.5387 10.0514L51.7097 11.5843L54.7356 15.5418H56.5761V5.73633H54.4394Z" fill="white"/>
<path d="M35.2579 8.7207H26.5755C26.1587 8.7207 25.7594 9.05772 25.6839 9.47233L23.8762 19.369C23.7495 20.0636 24.5541 20.3869 25.1083 19.8643L35.5983 9.96759C36.1136 9.48146 35.906 8.7207 35.2579 8.7207Z" fill="url(#paint0_linear_12871_31134)"/>
<path d="M2.29452 9.87349C2.58765 8.54749 3.65787 7.5585 5.06474 7.5585C6.0487 7.5585 6.82122 7.97844 7.58076 8.66464L8.95785 7.08151C8.04412 6.18533 6.9342 5.56836 5.07848 5.56836C2.3388 5.56836 0.350256 7.44515 0.00292969 9.87273H2.29452V9.87349Z" fill="white"/>
<path d="M7.65111 12.5725C6.87783 13.2732 6.18929 13.7212 5.06486 13.7212C3.6435 13.7212 2.59464 12.7246 2.29846 11.4062H0C0.339693 13.8627 2.35724 15.7106 4.99463 15.7106C6.89234 15.7106 8.01599 15.0381 9.0282 13.9601L7.65111 12.5733V12.5725Z" fill="white"/>
<path d="M17.9074 9.87241L16.1264 5.70117H14.1303L12.3494 9.87241H17.9074Z" fill="white"/>
<path d="M18.5616 11.4062H11.6952L9.91431 15.5767H12.1204L13.0204 13.3781H17.1799L18.0799 15.5767H20.3425L18.5616 11.4062Z" fill="white"/>
<path d="M43.881 9.87241L42.1001 5.70117H40.1046L38.3237 9.87241H43.881Z" fill="white"/>
<path d="M44.5352 11.4062H37.6688L35.8879 15.5767H38.0948L38.994 13.3781H43.1543L44.0535 15.5767H46.3169L44.5352 11.4062Z" fill="white"/>
<path d="M21.6023 11.402H30.5366C30.9534 11.402 31.1481 11.2932 31.2824 10.8778L34.4824 0.753632C34.7068 0.0590594 33.9473 -0.264264 33.3198 0.258377L21.4374 10.1551C20.8535 10.6412 20.9542 11.402 21.6023 11.402Z" fill="#F8C41F"/>
<defs>
<linearGradient id="paint0_linear_12871_31134" x1="41.6136" y1="16.5679" x2="38.2801" y2="7.71356" gradientUnits="userSpaceOnUse">
<stop offset="0.17" stop-color="#F8C41F"/>
<stop offset="1" stop-color="#AA852E"/>
</linearGradient>
</defs>
</svg>
