<svg width="12" height="13" viewBox="0 0 12 13" fill="none" xmlns="http://www.w3.org/2000/svg">
<path fill-rule="evenodd" clip-rule="evenodd" d="M1.5 5.5C1.5 3.01472 3.51472 1 6 1C8.48528 1 10.5 3.01472 10.5 5.5C10.5 7.05955 9.62807 8.18274 8.73567 9.11221C8.52035 9.33648 8.29825 9.55491 8.08356 9.76604L8.05569 9.79345C7.83038 10.0151 7.61369 10.2288 7.40958 10.4439C6.99925 10.8763 6.66421 11.2896 6.44721 11.7236C6.36252 11.893 6.18939 12 6 12C5.81061 12 5.63748 11.893 5.55279 11.7236C5.33579 11.2896 5.00075 10.8763 4.59042 10.4439C4.38631 10.2288 4.16962 10.0151 3.94431 9.79345L3.9164 9.766C3.70171 9.55487 3.47965 9.33649 3.26433 9.11221C2.37193 8.18274 1.5 7.05955 1.5 5.5ZM7.5 5.25C7.5 6.07843 6.82843 6.75 6 6.75C5.17157 6.75 4.5 6.07843 4.5 5.25C4.5 4.42157 5.17157 3.75 6 3.75C6.82843 3.75 7.5 4.42157 7.5 5.25Z" fill="#19ACB6"/>
</svg>
