<svg width="14" height="14" viewBox="0 0 14 14" fill="none" xmlns="http://www.w3.org/2000/svg">
<path d="M7.61184 9.47918H6.51519C5.73936 9.47918 5.10352 8.82584 5.10352 8.02084C5.10352 7.78168 5.30185 7.58334 5.54102 7.58334C5.78018 7.58334 5.97852 7.78168 5.97852 8.02084C5.97852 8.34168 6.21769 8.60418 6.51519 8.60418H7.61184C7.83934 8.60418 8.02018 8.40001 8.02018 8.14918C8.02018 7.83418 7.93269 7.78751 7.73435 7.71751L5.97852 7.10501C5.60518 6.97084 5.10352 6.70251 5.10352 5.84501C5.10352 5.11585 5.68102 4.51501 6.38686 4.51501H7.48351C8.25934 4.51501 8.89518 5.16835 8.89518 5.97335C8.89518 6.21251 8.69685 6.41085 8.45768 6.41085C8.21852 6.41085 8.02018 6.21251 8.02018 5.97335C8.02018 5.65251 7.78101 5.39001 7.48351 5.39001H6.38686C6.15936 5.39001 5.97852 5.59418 5.97852 5.84501C5.97852 6.16001 6.06601 6.20667 6.26434 6.27667L8.02018 6.88918C8.39352 7.02334 8.89518 7.29168 8.89518 8.14918C8.89518 8.88418 8.31768 9.47918 7.61184 9.47918Z" fill="#DD2E44"/>
<path d="M7 10.0625C6.76083 10.0625 6.5625 9.86417 6.5625 9.625V4.375C6.5625 4.13583 6.76083 3.9375 7 3.9375C7.23917 3.9375 7.4375 4.13583 7.4375 4.375V9.625C7.4375 9.86417 7.23917 10.0625 7 10.0625Z" fill="#DD2E44"/>
<path d="M6.99935 13.2709C3.54018 13.2709 0.728516 10.4592 0.728516 7.00002C0.728516 3.54085 3.54018 0.729187 6.99935 0.729187C7.23852 0.729187 7.43685 0.92752 7.43685 1.16669C7.43685 1.40585 7.23852 1.60419 6.99935 1.60419C4.02435 1.60419 1.60352 4.02502 1.60352 7.00002C1.60352 9.97502 4.02435 12.3959 6.99935 12.3959C9.97435 12.3959 12.3952 9.97502 12.3952 7.00002C12.3952 6.76085 12.5935 6.56252 12.8327 6.56252C13.0718 6.56252 13.2702 6.76085 13.2702 7.00002C13.2702 10.4592 10.4585 13.2709 6.99935 13.2709Z" fill="#DD2E44"/>
<path d="M12.8333 3.93752C12.5942 3.93752 12.3958 3.73919 12.3958 3.50002V1.60419H10.5C10.2608 1.60419 10.0625 1.40585 10.0625 1.16669C10.0625 0.92752 10.2608 0.729187 10.5 0.729187H12.8333C13.0725 0.729187 13.2708 0.92752 13.2708 1.16669V3.50002C13.2708 3.73919 13.0725 3.93752 12.8333 3.93752Z" fill="#DD2E44"/>
<path d="M9.91651 4.52086C9.80568 4.52086 9.69484 4.48003 9.60734 4.39253C9.43818 4.22336 9.43818 3.94336 9.60734 3.77419L12.524 0.857527C12.6932 0.68836 12.9732 0.68836 13.1423 0.857527C13.3115 1.02669 13.3115 1.30669 13.1423 1.47586L10.2257 4.39253C10.1382 4.48003 10.0273 4.52086 9.91651 4.52086Z" fill="#DD2E44"/>
</svg>
