<svg width="29" height="29" viewBox="0 0 29 29" fill="none" xmlns="http://www.w3.org/2000/svg">
<path d="M17.4826 8.35825L15.1084 7.9408L15.3136 6.77266L17.7661 7.20374C17.9493 6.89192 18.2108 6.63338 18.5247 6.45376C18.8386 6.27413 19.194 6.17966 19.5557 6.17969H21.8593C22.061 6.17969 22.224 6.34275 22.224 6.54436V9.96579C22.224 10.1674 22.0604 10.3305 21.8593 10.3305H19.5557C19.0231 10.3305 18.5108 10.1258 18.125 9.7587C17.7391 9.3916 17.5091 8.8902 17.4826 8.35825Z" fill="#2DBA9D"/>
<path fill-rule="evenodd" clip-rule="evenodd" d="M18.5488 11.2578L17.9974 15.6677H13.9207V14.9087C13.9207 14.6727 13.6966 14.4818 13.4202 14.4818H8.63498C5.33214 14.4818 2.6543 16.7647 2.6543 19.5813C2.6543 19.7118 2.77882 19.8185 2.93299 19.8185H5.63219C5.70497 20.6298 6.07867 21.3844 6.6798 21.934C7.28093 22.4836 8.06596 22.7884 8.88047 22.7884C9.69498 22.7884 10.48 22.4836 11.0811 21.934C11.6823 21.3844 12.056 20.6298 12.1288 19.8185H12.6684C12.6909 19.8185 12.713 19.8181 12.7348 19.8173V19.8185H18.8815C19.0013 20.2217 19.3458 20.4797 19.7223 20.5597C19.9738 21.3134 20.4918 21.9494 21.179 22.3483C21.8662 22.7471 22.6754 22.8814 23.4546 22.7258C24.2338 22.5702 24.9294 22.1355 25.4107 21.5034C25.8921 20.8712 26.1261 20.085 26.0689 19.2925C26.3327 19.0174 26.4656 18.6136 26.3031 18.1766C26.1166 17.6757 25.828 17.219 25.4556 16.8356C25.0832 16.4522 24.6351 16.1505 24.1398 15.9496C23.6445 15.7486 23.1128 15.6529 22.5785 15.6685C22.0443 15.6841 21.5191 15.8107 21.0363 16.0401V11.5169H19.5539C19.2023 11.5171 18.8565 11.4279 18.5488 11.2578ZM10.3332 19.8185H7.4277C7.49574 20.1536 7.67755 20.4549 7.94232 20.6713C8.20708 20.8877 8.53852 21.0059 8.88047 21.0059C9.22242 21.0059 9.55386 20.8877 9.81862 20.6713C10.0834 20.4549 10.2652 20.1536 10.3332 19.8185ZM21.5664 20.3213C21.7243 20.5677 21.9515 20.7619 22.2195 20.8794C22.4875 20.997 22.7843 21.0326 23.0725 20.9818C23.3607 20.931 23.6274 20.7961 23.8391 20.5941C24.0508 20.392 24.1979 20.1319 24.2621 19.8464L21.5664 20.3213Z" fill="#2DBA9D"/>
<path d="M5.71897 12.1078C5.73049 12.0754 5.74295 12.0434 5.75633 12.0118L5.71897 12.1078ZM5.71897 12.1078C5.65374 12.2934 5.61816 12.4932 5.61816 12.7008V13.2938H14.5127V12.7008C14.5119 12.5004 14.4807 12.3102 14.419 12.1303L14.4119 12.1078C14.2892 11.7608 14.0619 11.4604 13.7614 11.248C13.4608 11.0356 13.1018 10.9217 12.7338 10.9219H7.39707C7.04735 10.9218 6.70536 11.0248 6.41386 11.218C6.12235 11.4112 5.89426 11.6861 5.7581 12.0082" fill="#F8C41F"/>
</svg>
