<?xml version="1.0" encoding="UTF-8"?>
<svg xmlns="http://www.w3.org/2000/svg" xmlns:xlink="http://www.w3.org/1999/xlink" width="36px" height="36px" viewBox="0 0 36 36" version="1.1">
<g id="surface1">
<path style=" stroke:none;fill-rule:nonzero;fill:rgb(76.47059%,76.862746%,78.823531%);fill-opacity:1;" d="M 11.742188 7.5 L 10.242188 6 L 33 6 L 33 28.757812 L 31.5 27.257812 L 31.5 26.222656 L 26.824219 21.546875 L 26.234375 21.992188 L 25.164062 20.921875 L 26.445312 19.960938 C 26.742188 19.734375 27.164062 19.765625 27.429688 20.03125 L 31.5 24.101562 L 31.5 7.5 Z M 4.5 30 L 4.5 29.222656 L 8.921875 24.800781 C 9.234375 24.960938 9.582031 25.042969 9.9375 25.046875 C 10.496094 25.046875 11.035156 24.820312 11.429688 24.421875 L 15.804688 20.050781 L 14.746094 18.988281 L 10.371094 23.363281 C 10.230469 23.492188 10.039062 23.554688 9.847656 23.542969 C 9.65625 23.527344 9.480469 23.4375 9.355469 23.289062 C 9.058594 23.007812 8.589844 23.011719 8.300781 23.300781 L 4.5 27.101562 L 4.5 8.742188 L 3 7.242188 L 3 31.5 L 27.257812 31.5 L 25.757812 30 Z M 25.5 12.75 C 25.5 13.992188 24.492188 15 23.25 15 C 22.007812 15 21 13.992188 21 12.75 C 21 11.507812 22.007812 10.5 23.25 10.5 C 24.492188 10.5 25.5 11.507812 25.5 12.75 Z M 24 12.75 C 24 12.335938 23.664062 12 23.25 12 C 22.835938 12 22.5 12.335938 22.5 12.75 C 22.5 13.164062 22.835938 13.5 23.25 13.5 C 23.664062 13.5 24 13.164062 24 12.75 Z M 32.46875 33.53125 L 33.53125 32.46875 L 3.53125 2.46875 L 2.46875 3.53125 Z M 32.46875 33.53125 "/>
</g>
</svg>
