<svg width="14" height="14" viewBox="0 0 14 14" fill="none" xmlns="http://www.w3.org/2000/svg">
<path fill-rule="evenodd" clip-rule="evenodd" d="M7.6235 3.38827C7.6852 3.07206 7.99154 2.86574 8.30775 2.92743C8.99146 3.06083 9.61982 3.39521 10.1124 3.88779C10.605 4.38036 10.9394 5.00872 11.0727 5.69243C11.1344 6.00864 10.9281 6.31498 10.6119 6.37667C10.2957 6.43837 9.98936 6.23205 9.92767 5.91584C9.83874 5.46003 9.61582 5.04113 9.28744 4.71274C8.95905 4.38436 8.54015 4.16144 8.08434 4.07251C7.76813 4.01082 7.56181 3.70447 7.6235 3.38827Z" fill="#07C160"/>
<path fill-rule="evenodd" clip-rule="evenodd" d="M7.61628 1.10223C7.65185 0.782033 7.94025 0.551299 8.26045 0.58687C9.57572 0.732986 10.8022 1.32198 11.7386 2.25715C12.6749 3.19232 13.2655 4.41808 13.4132 5.73317C13.4492 6.05332 13.2188 6.34201 12.8987 6.37799C12.5785 6.41396 12.2898 6.18359 12.2539 5.86344C12.1356 4.81137 11.6632 3.83077 10.9141 3.08263C10.1651 2.33449 9.18385 1.8633 8.13164 1.7464C7.81144 1.71083 7.58071 1.42243 7.61628 1.10223Z" fill="#07C160"/>
<path fill-rule="evenodd" clip-rule="evenodd" d="M3.69731 10.3554C2.27753 8.93561 1.24514 7.16755 0.696462 5.23716C0.610416 4.93441 0.543691 4.69963 0.542732 4.37769C0.541637 4.00974 0.661516 3.54877 0.841725 3.22797C1.15164 2.67627 1.81709 1.96924 2.39186 1.67852C2.88847 1.42734 3.47496 1.42734 3.97157 1.67852C4.45904 1.92508 5.0182 2.49582 5.31507 2.95242C5.69219 3.53245 5.69219 4.28021 5.31507 4.86024C5.21401 5.01567 5.06997 5.15946 4.90275 5.3264C4.85068 5.37838 4.79337 5.41594 4.83143 5.49521C5.20933 6.28229 5.7247 7.02055 6.37843 7.67428C7.03216 8.32801 7.77042 8.84338 8.5575 9.22128C8.63899 9.2604 8.67238 9.20397 8.72631 9.14995C8.89325 8.98274 9.03704 8.83869 9.19247 8.73764C9.7725 8.36052 10.5203 8.36052 11.1003 8.73764C11.5569 9.03451 12.1276 9.59367 12.3742 10.0811C12.6254 10.5778 12.6254 11.1642 12.3742 11.6609C12.0856 12.2313 11.3844 12.8966 10.8247 13.211C10.5039 13.3912 10.043 13.5111 9.67501 13.51C9.35308 13.509 9.1183 13.4423 8.81555 13.3562C6.88517 12.8076 5.11708 11.7752 3.69731 10.3554Z" fill="#07C160"/>
</svg>
