<svg width="66" height="24" viewBox="0 0 66 24" fill="none" xmlns="http://www.w3.org/2000/svg">
<g clip-path="url(#clip0_4690_15073)">
<path d="M62.8372 14.7114V12.6455V8.51791H56.647H52.5195V6.45197H62.8372V2.32227H52.5195H46.3293V6.45197V8.51791V12.6455H52.5195H56.647V14.7114H46.3293V18.8411H56.647H62.8372V14.7114Z" fill="#37394A"/>
<path d="M44.2667 2.32227H40.1392V18.8389H44.2667V2.32227Z" fill="#37394A"/>
<path d="M21.5686 2.32227V6.45197H33.9489V8.51791H25.6939H21.5686V12.6455V18.8411H25.6939V12.7083L31.8863 18.8411H38.0764L31.6176 12.6455H33.9489H38.0764V8.51791V6.45197V2.32227H33.9489H21.5686Z" fill="#37394A"/>
<path d="M9.18604 12.6443H13.3027V8.52539H9.18604V12.6443ZM10.2195 9.5486H12.2822V11.6124H10.2195V9.5486Z" fill="#37394A"/>
<path d="M7.12359 2.32227H3.51176C3.37527 2.3233 3.24461 2.37777 3.14776 2.47401C3.09958 2.52205 3.06137 2.57916 3.03534 2.64203C3.00931 2.70491 2.99598 2.77232 2.99609 2.84038V18.323C2.99598 18.391 3.00931 18.4585 3.03534 18.5213C3.06137 18.5842 3.09958 18.6413 3.14776 18.6894C3.24483 18.785 3.37553 18.8387 3.51176 18.8389H13.3138V14.7201H7.12359V2.32227Z" fill="#37394A"/>
<path d="M18.988 2.32227H9.18604V6.45197H15.3784V12.6455H19.495V2.84038C19.4963 2.70398 19.4442 2.57249 19.3499 2.47401C19.2532 2.37887 19.1236 2.32454 18.988 2.32227Z" fill="#37394A"/>
<path d="M19.5059 14.7109H15.3784V24.0022H19.5059V14.7109Z" fill="#37394A"/>
<path d="M8.755 0H1.01567C0.879079 0.000570616 0.748248 0.0551119 0.651665 0.151747C0.555082 0.248381 0.50057 0.379282 0.5 0.515943V8.25942H1.53133V1.53916C1.53416 1.40401 1.58966 1.27531 1.68601 1.18054C1.78235 1.08577 1.91189 1.03242 2.047 1.03189H8.76367L8.755 0Z" fill="#37394A"/>
<path d="M64.4687 13.418V20.1382C64.4681 20.2749 64.4136 20.4058 64.317 20.5024C64.2204 20.5991 64.0896 20.6536 63.953 20.6542H57.2363V21.6774H64.9757C65.044 21.6782 65.1119 21.6655 65.1753 21.64C65.2388 21.6145 65.2965 21.5767 65.3453 21.5287C65.394 21.4807 65.4328 21.4236 65.4593 21.3606C65.4859 21.2975 65.4997 21.2299 65.5 21.1614V13.418H64.4687Z" fill="#37394A"/>
</g>
<defs>
<clipPath id="clip0_4690_15073">
<rect width="65" height="24" fill="white" transform="translate(0.5)"/>
</clipPath>
</defs>
</svg>
