<svg width="124" height="104" viewBox="0 0 124 104" fill="none" xmlns="http://www.w3.org/2000/svg">
<rect x="10.5" y="0.5" width="103" height="103" rx="51.5" fill="white"/>
<rect x="10.5" y="0.5" width="103" height="103" rx="51.5" stroke="#2DBA9D"/>
<rect x="13.5365" y="3.53711" width="96.927" height="96.927" rx="48.4635" stroke="#2DBA9D"/>
<path d="M27.9994 79L29.122 75.5451H32.7547L29.8157 73.4098L30.9383 69.9549L27.9994 72.0902L25.0605 69.9549L26.183 73.4098L23.2441 75.5451H26.8768L27.9994 79Z" fill="#2DBA9D"/>
<path d="M61.9994 96L63.122 92.5451H66.7547L63.8157 90.4098L64.9383 86.9549L61.9994 89.0902L59.0605 86.9549L60.183 90.4098L57.2441 92.5451H60.8768L61.9994 96Z" fill="#2DBA9D"/>
<path d="M95.9994 79L97.122 75.5451H100.755L97.8157 73.4098L98.9383 69.9549L95.9994 72.0902L93.0605 69.9549L94.183 73.4098L91.2441 75.5451H94.8768L95.9994 79Z" fill="#2DBA9D"/>
<path d="M27.9994 25L29.122 28.4549H32.7547L29.8157 30.5902L30.9383 34.0451L27.9994 31.9098L25.0605 34.0451L26.183 30.5902L23.2441 28.4549H26.8768L27.9994 25Z" fill="#2DBA9D"/>
<path d="M61.9994 8L63.122 11.4549H66.7547L63.8157 13.5902L64.9383 17.0451L61.9994 14.9098L59.0605 17.0451L60.183 13.5902L57.2441 11.4549H60.8768L61.9994 8Z" fill="#2DBA9D"/>
<path d="M95.9994 25L97.122 28.4549H100.755L97.8157 30.5902L98.9383 34.0451L95.9994 31.9098L93.0605 34.0451L94.183 30.5902L91.2441 28.4549H94.8768L95.9994 25Z" fill="#2DBA9D"/>
<rect x="34.7921" y="24.0332" width="55.1752" height="55.1752" rx="27.5876" stroke="#2DBA9D"/>
<rect x="0.947497" y="45.0005" width="120.949" height="24" rx="5.81623" transform="rotate(-4.47184 0.947497 45.0005)" fill="white"/>
<rect x="0.947497" y="45.0005" width="120.949" height="24" rx="5.81623" transform="rotate(-4.47184 0.947497 45.0005)" stroke="#2DBA9D"/>
<path d="M12.692 62.6381L11.6175 48.8991L16.7696 48.4962C17.8251 48.4137 18.725 48.5278 19.4692 48.8385C20.2179 49.149 20.8015 49.6208 21.22 50.254C21.6426 50.8824 21.8882 51.6349 21.9568 52.5115C22.0257 53.3925 21.8977 54.172 21.5727 54.8498C21.2519 55.5229 20.743 56.0644 20.0461 56.4743C19.3489 56.8798 18.4725 57.1239 17.4171 57.2064L13.7476 57.4934L13.586 55.4272L16.9201 55.1664C17.5372 55.1182 18.036 54.9937 18.4162 54.7929C18.7962 54.5877 19.0671 54.3123 19.2291 53.9667C19.3951 53.6162 19.4591 53.1973 19.421 52.7098C19.3829 52.2223 19.2542 51.8139 19.0349 51.4846C18.8153 51.1508 18.5018 50.9098 18.0942 50.7617C17.6863 50.6091 17.1715 50.5571 16.5499 50.6057L14.269 50.7841L15.1809 62.4434L12.692 62.6381ZM19.3027 55.8575L23.1907 61.817L20.4134 62.0342L16.5858 56.07L19.3027 55.8575ZM24.9785 61.6772L23.9041 47.9383L32.8397 47.2394L33.0029 49.3257L26.5561 49.8299L26.8478 53.5598L32.8317 53.0918L32.9949 55.1782L27.0109 55.6462L27.3042 59.3962L33.8047 58.8878L33.9679 60.9741L24.9785 61.6772ZM41.109 60.4156L36.4534 60.7797L35.3789 47.0408L40.1285 46.6694C41.4925 46.5627 42.6858 46.7461 43.7082 47.2196C44.7348 47.6883 45.552 48.4141 46.1598 49.3969C46.7677 50.3798 47.1274 51.5846 47.2389 53.0113C47.3509 54.4424 47.1809 55.6931 46.7292 56.7634C46.2819 57.8333 45.5811 58.6822 44.6268 59.3103C43.677 59.9381 42.5044 60.3065 41.109 60.4156ZM38.7738 58.4317L40.8199 58.2717C41.7769 58.1968 42.5616 57.96 43.1738 57.5611C43.7858 57.1578 44.2254 56.5947 44.4929 55.8718C44.76 55.1445 44.8524 54.2553 44.7702 53.2043C44.688 52.1533 44.4588 51.2938 44.0826 50.6258C43.706 49.9533 43.189 49.4696 42.5315 49.1745C41.878 48.8746 41.0862 48.7611 40.156 48.8338L38.0361 48.9996L38.7738 58.4317ZM50.1419 59.7092L49.0675 45.9703L58.0031 45.2715L58.1663 47.3578L51.7195 47.862L52.0112 51.5919L57.9951 51.1239L58.1583 53.2102L52.1743 53.6782L52.4676 57.4282L58.9681 56.9198L59.1313 59.0062L50.1419 59.7092ZM61.6168 58.8118L60.5423 45.0729L69.4779 44.3741L69.6411 46.4604L63.1943 46.9646L63.486 50.6945L69.4699 50.2265L69.6331 52.3128L63.6491 52.7808L63.9424 56.5308L70.4429 56.0224L70.6061 58.1088L61.6168 58.8118ZM72.0171 44.1755L75.0627 43.9373L79.92 53.5736L80.081 53.561L83.3812 43.2867L86.4268 43.0485L87.5013 56.7874L85.1131 56.9742L84.3749 47.5354L84.2475 47.5454L81.1855 57.2409L79.4011 57.3804L74.8675 48.2587L74.74 48.2687L75.4798 57.7276L73.0916 57.9144L72.0171 44.1755ZM90.2115 56.5755L89.137 42.8366L98.0727 42.1377L98.2359 44.2241L91.789 44.7283L92.0807 48.4581L98.0647 47.9902L98.2278 50.0765L92.2439 50.5445L92.5372 54.2945L99.0377 53.7861L99.2008 55.8724L90.2115 56.5755ZM106.342 55.314L101.686 55.6781L100.612 41.9392L105.361 41.5677C106.725 41.461 107.919 41.6444 108.941 42.1179C109.968 42.5866 110.785 43.3124 111.393 44.2953C112.001 45.2781 112.36 46.4829 112.472 47.9096C112.584 49.3407 112.414 50.5914 111.962 51.6617C111.515 52.7316 110.814 53.5806 109.86 54.2087C108.91 54.8364 107.737 55.2048 106.342 55.314ZM104.007 53.33L106.053 53.17C107.01 53.0951 107.795 52.8583 108.407 52.4594C109.019 52.0561 109.458 51.493 109.726 50.7701C109.993 50.0428 110.085 49.1536 110.003 48.1027C109.921 47.0517 109.692 46.1922 109.316 45.5241C108.939 44.8516 108.422 44.3679 107.764 44.0728C107.111 43.7729 106.319 43.6594 105.389 43.7321L103.269 43.8979L104.007 53.33Z" fill="#2DBA9D"/>
</svg>
