<svg width="32" height="32" viewBox="0 0 32 32" fill="none" xmlns="http://www.w3.org/2000/svg">
<path d="M22.4583 28.9167V26.3334H26.3333V22.4584H28.9166V26.9792C28.9166 27.4959 28.6583 27.8834 28.2708 28.2709C27.8833 28.6584 27.3666 28.9167 26.9791 28.9167H22.4583ZM9.54159 28.9167H5.02075C4.50409 28.9167 4.11659 28.6584 3.72909 28.2709C3.34159 27.8834 3.08325 27.3667 3.08325 26.9792V22.4584H5.66659V26.3334H9.54159V28.9167ZM22.4583 3.08337H26.9791C27.4958 3.08337 27.8833 3.34171 28.2708 3.72921C28.6583 4.11671 28.9166 4.50421 28.9166 5.02087V9.54171H26.3333V5.66671H22.4583V3.08337ZM9.54159 3.08337V5.66671H5.66659V9.54171H3.08325V5.02087C3.08325 4.50421 3.34159 4.11671 3.72909 3.72921C4.11659 3.34171 4.50409 3.08337 5.02075 3.08337H9.54159ZM25.0416 14.7084H6.95825V17.2917H25.0416V14.7084Z" fill="white"/>
</svg>
