<svg width="16" height="16" viewBox="0 0 16 16" fill="none" xmlns="http://www.w3.org/2000/svg">
<path d="M14.667 10.6665C14.667 9.56193 13.7716 8.6665 12.667 8.6665C11.5624 8.6665 10.667 9.56193 10.667 10.6665C10.667 11.7711 11.5624 12.6665 12.667 12.6665C13.7716 12.6665 14.667 11.7711 14.667 10.6665Z" stroke="#19ACB6"/>
<path d="M7.3335 10.6665V9.6665C7.3335 8.40917 7.3335 7.78117 6.94283 7.3905C6.55216 6.99983 5.92416 6.99983 4.66683 6.99983H4.26683C4.0195 6.99983 3.8955 6.99983 3.79083 7.00783C3.15781 7.05763 2.56333 7.33167 2.11433 7.78067C1.66534 8.22967 1.39129 8.82414 1.3415 9.45717C1.3335 9.56183 1.3335 9.6865 1.3335 9.93317C1.3335 9.99517 1.3335 10.0265 1.3355 10.0518C1.34788 10.2102 1.4164 10.3589 1.52873 10.4713C1.64105 10.5836 1.7898 10.6521 1.94816 10.6645C1.98769 10.6663 2.02726 10.667 2.06683 10.6665H7.3335ZM7.3335 10.6665H10.6668" stroke="#19ACB6" stroke-linecap="round"/>
<path opacity="0.5" d="M6.3335 10.6665C6.3335 11.1969 6.12278 11.7056 5.74771 12.0807C5.37264 12.4558 4.86393 12.6665 4.3335 12.6665C3.80306 12.6665 3.29436 12.4558 2.91928 12.0807C2.54421 11.7056 2.3335 11.1969 2.3335 10.6665" stroke="#19ACB6" stroke-linecap="round"/>
<path d="M8 3.33316H8.352C9.154 3.33316 9.55467 3.33316 9.87667 3.53249C10.1993 3.73116 10.3787 4.08983 10.7367 4.80716L12.6667 8.66649" stroke="#19ACB6" stroke-linecap="round"/>
<path opacity="0.5" d="M12.0953 7.33317L12.5493 6.9985C12.7247 6.86917 12.8127 6.80517 12.8733 6.7205C12.9149 6.66328 12.9471 6.59982 12.9687 6.5325C13 6.43317 13 6.3245 13 6.10717C13 5.69517 13 5.48983 12.912 5.33583C12.8529 5.23251 12.7673 5.14688 12.664 5.08783C12.5107 4.99983 12.304 4.99983 11.8927 4.99983H11" stroke="#19ACB6" stroke-linecap="round"/>
</svg>
