<svg width="12" height="12" viewBox="0 0 12 12" fill="none" xmlns="http://www.w3.org/2000/svg">
<g clip-path="url(#clip0_601_12269)">
<path opacity="0.12" d="M1.70697 5.37218C1.4093 5.25642 1.26046 5.19854 1.21701 5.11513C1.17934 5.04284 1.17929 4.95671 1.21687 4.88437C1.26023 4.80091 1.409 4.74286 1.70653 4.62675L10.1504 1.33158C10.419 1.22676 10.5533 1.17435 10.6391 1.20302C10.7136 1.22792 10.7721 1.2864 10.797 1.36093C10.8257 1.44674 10.7733 1.58103 10.6685 1.84962L7.37328 10.2935C7.25717 10.591 7.19912 10.7398 7.11566 10.7832C7.04332 10.8207 6.95719 10.8207 6.8849 10.783C6.80149 10.7396 6.74361 10.5907 6.62785 10.2931L5.3138 6.91406C5.2903 6.85363 5.27855 6.82342 5.2604 6.79798C5.24432 6.77543 5.2246 6.75571 5.20205 6.73963C5.17661 6.72148 5.1464 6.70973 5.08597 6.68623L1.70697 5.37218Z" fill="#19ACB6"/>
<path d="M1.70697 5.37218C1.4093 5.25642 1.26046 5.19854 1.21701 5.11513C1.17934 5.04284 1.17929 4.95671 1.21687 4.88437C1.26023 4.80091 1.409 4.74286 1.70653 4.62675L10.1504 1.33158C10.419 1.22676 10.5533 1.17435 10.6391 1.20302C10.7136 1.22792 10.7721 1.2864 10.797 1.36093C10.8257 1.44674 10.7733 1.58103 10.6685 1.84962L7.37328 10.2935C7.25717 10.591 7.19912 10.7398 7.11566 10.7832C7.04332 10.8207 6.95719 10.8207 6.8849 10.783C6.80149 10.7396 6.74361 10.5907 6.62785 10.2931L5.3138 6.91406C5.2903 6.85363 5.27855 6.82342 5.2604 6.79798C5.24432 6.77543 5.2246 6.75571 5.20205 6.73963C5.17661 6.72148 5.1464 6.70973 5.08597 6.68623L1.70697 5.37218Z" stroke="#19ACB6" stroke-linecap="round" stroke-linejoin="round"/>
</g>
<defs>
<clipPath id="clip0_601_12269">
<rect width="12" height="12" fill="white"/>
</clipPath>
</defs>
</svg>
