<svg width="16" height="16" viewBox="0 0 16 16" fill="none" xmlns="http://www.w3.org/2000/svg">
<path d="M11.0733 14C10.6316 14 10.2567 13.8456 9.94867 13.5367C9.64111 13.2273 9.48733 12.8518 9.48733 12.41C9.48733 12.3433 9.51667 12.1751 9.57533 11.9053L4.77733 9.05667C4.63333 9.22289 4.45711 9.35333 4.24867 9.448C4.04022 9.54267 3.81644 9.59 3.57733 9.59C3.13911 9.59 2.76667 9.434 2.46 9.122C2.15333 8.81 2 8.436 2 8C2 7.564 2.15333 7.19 2.46 6.878C2.76667 6.566 3.13911 6.41 3.57733 6.41C3.816 6.41 4.03978 6.45733 4.24867 6.552C4.45756 6.64667 4.63378 6.77733 4.77733 6.944L9.576 4.10733C9.54489 4.02111 9.52244 3.93556 9.50867 3.85067C9.49444 3.76533 9.48733 3.67822 9.48733 3.58933C9.48733 3.148 9.64222 2.77267 9.952 2.46333C10.2618 2.15444 10.6378 2 11.08 2C11.5222 2 11.8973 2.15489 12.2053 2.46467C12.5133 2.77444 12.6671 3.15044 12.6667 3.59267C12.6662 4.03489 12.5118 4.41 12.2033 4.718C11.8949 5.026 11.5193 5.17978 11.0767 5.17933C10.8358 5.17933 10.6136 5.13 10.41 5.03133C10.2064 4.93267 10.0331 4.8 9.89 4.63333L5.09067 7.482C5.12178 7.56822 5.14422 7.654 5.158 7.73933C5.17222 7.82422 5.17933 7.91111 5.17933 8C5.17933 8.08889 5.17222 8.17578 5.158 8.26067C5.14378 8.34556 5.12156 8.43133 5.09133 8.518L9.89 11.3667C10.0336 11.2 10.2069 11.0673 10.41 10.9687C10.6136 10.87 10.8358 10.8207 11.0767 10.8207C11.5184 10.8207 11.894 10.9753 12.2033 11.2847C12.5122 11.5949 12.6667 11.9711 12.6667 12.4133C12.6667 12.8556 12.5118 13.2307 12.202 13.5387C11.8922 13.8467 11.5156 14.0004 11.0733 14Z" fill="#19ACB6"/>
</svg>
