<svg width="36" height="36" viewBox="0 0 36 36" fill="none" xmlns="http://www.w3.org/2000/svg">
<path fill-rule="evenodd" clip-rule="evenodd" d="M5.76769 8.88567H30.9569C31.7633 8.88804 32.5362 9.20956 33.1064 9.77974C33.6766 10.3499 33.9976 11.1226 34 11.929V29.5604C33.9976 30.3667 33.6766 31.1394 33.1064 31.7096C32.5362 32.2798 31.7633 32.6011 30.9569 32.6034H5.04208C4.23591 32.6008 3.46354 32.2793 2.89358 31.7091C2.32362 31.139 2.00237 30.3665 2 29.5604V7.79164C2.01954 7.41667 2.17729 7.06239 2.44288 6.79698C2.70848 6.53157 3.06305 6.37386 3.43803 6.35458L26.6638 3.39649C26.8526 3.39622 27.0392 3.43325 27.2137 3.50538C27.3881 3.5775 27.547 3.68341 27.6805 3.81691C27.814 3.9504 27.9199 4.10901 27.992 4.28348C28.0641 4.45794 28.1007 4.64475 28.1004 4.83354V7.30163H4.31745C4.31745 8.33267 4.61759 8.90666 5.77062 8.90666L5.76769 8.88567ZM19.9009 28.1863C18.7726 28.3865 17.6128 28.3194 16.5151 27.9905C15.4173 27.6616 14.4118 27.0799 13.5795 26.2922C12.9014 25.5832 13.9845 24.4844 14.6596 25.2104C15.8102 26.2611 17.3294 26.8139 18.8863 26.7483C20.7293 26.7143 22.3869 25.0244 21.3229 23.1483C19.8668 20.5482 16.2834 21.2712 14.4594 19.2432C12.9703 17.6031 13.6813 15 15.4213 13.8499C17.2484 12.6499 20.3935 12.701 21.8795 14.4081C22.5225 15.1521 21.4415 16.2329 20.7965 15.4899C20.0789 14.8432 19.1354 14.5055 18.1704 14.5499C17.2054 14.5943 16.2963 15.0171 15.641 15.7269C14.086 17.772 16.4195 18.871 18.0415 19.3621C20.2726 20.0381 22.7413 21.272 23.1413 23.8241C23.2512 24.827 22.978 25.8345 22.3766 26.6445C21.7752 27.4545 20.8908 28.0075 19.899 28.1924L19.9009 28.1863Z" fill="#EE4E2C"/>
<path fill-rule="evenodd" clip-rule="evenodd" d="M19.8848 28.2076C18.7563 28.4076 17.5968 28.3402 16.4989 28.0113C15.4011 27.6823 14.395 27.101 13.5623 26.3135C12.8863 25.6034 13.9624 24.5044 14.6444 25.2314C15.7951 26.2822 17.3152 26.8347 18.8721 26.769C20.7151 26.735 22.3718 25.0454 21.3057 23.1693C19.8527 20.5692 16.2692 21.2939 14.4442 19.2688C12.9551 17.6288 13.6651 15.0261 15.4061 13.8761C17.2312 12.676 20.3763 12.7266 21.8634 14.4337C22.5074 15.1777 21.4243 16.2598 20.7823 15.5158C20.0645 14.8691 19.1213 14.5316 18.1562 14.5758C17.1911 14.62 16.2825 15.0426 15.6268 15.7521C14.0718 17.7972 16.4033 18.897 18.0263 19.387C20.2554 20.063 22.7266 21.2969 23.1476 23.849C23.2555 24.8514 22.9811 25.8579 22.379 26.6665C21.7769 27.4751 20.8916 28.0265 19.9004 28.2105L19.8848 28.2076Z" fill="#FEFEFE"/>
</svg>
