<svg width="30" height="30" viewBox="0 0 30 30" fill="none" xmlns="http://www.w3.org/2000/svg">
<g clip-path="url(#clip0_529_10271)">
<rect width="30" height="30" rx="15" fill="white"/>
<path d="M27.6268 29.9994H2.34559C2.0375 29.9996 1.73238 29.9391 1.4477 29.8212C1.16301 29.7033 0.904337 29.5303 0.686482 29.3123C0.468626 29.0942 0.29586 28.8353 0.178067 28.5503C0.0602736 28.2654 -0.00023579 27.96 6.90479e-07 27.6516V2.3472C-0.000156967 2.03887 0.0604104 1.73353 0.178239 1.44864C0.296068 1.16375 0.468846 0.904913 0.686694 0.686916C0.904542 0.468919 1.16319 0.296044 1.44783 0.178177C1.73248 0.0603105 2.03755 -0.000235923 2.34559 6.90834e-07H27.6262C27.9342 -0.000157039 28.2392 0.0604475 28.5238 0.178349C28.8084 0.296251 29.0669 0.469139 29.2847 0.687128C29.5025 0.905117 29.6752 1.16393 29.793 1.44878C29.9108 1.73363 29.9714 2.03892 29.9712 2.3472V27.6528C29.9714 27.9611 29.9108 28.2664 29.793 28.5512C29.6752 28.8361 29.5025 29.0949 29.2847 29.3129C29.0669 29.5309 28.8084 29.7037 28.5238 29.8217C28.2392 29.9396 27.9342 30.0002 27.6262 30" fill="#C8EBED"/>
<path d="M0.688721 29.3031C0.897213 29.5115 1.14472 29.6768 1.41709 29.7894C1.68945 29.9021 1.98133 29.9598 2.27603 29.9595H27.7521C28.3482 29.9595 28.92 29.7224 29.3416 29.3005C29.7631 28.8785 30 28.3062 30 27.7095V2.20947C30.0003 1.91364 29.9423 1.62065 29.8291 1.34736C29.716 1.07408 29.5499 0.825886 29.3406 0.617065L0.688721 29.3031Z" fill="#E8F7F8"/>
<path d="M8.66071 21.3285C7.82302 20.4935 7.15865 19.5009 6.70588 18.4078C6.25311 17.3147 6.02089 16.1428 6.02259 14.9595C6.02259 9.98907 10.0484 5.95947 15.0141 5.95947C17.4964 5.95947 19.7437 6.96627 21.3712 8.59407L8.66071 21.3285Z" fill="#C8EBED"/>
<path d="M21.3711 8.59399C22.2077 9.42883 22.8712 10.421 23.3233 11.5134C23.7754 12.6058 24.0073 13.7769 24.0056 14.9594C24.0056 19.9298 19.9798 23.9594 15.0141 23.9594C13.8342 23.9611 12.6655 23.7295 11.5752 23.2781C10.485 22.8266 9.49447 22.164 8.66064 21.3284" fill="#E8F7F8"/>
<path d="M11.2677 17.2095C12.5091 17.2095 13.5155 16.2021 13.5155 14.9595C13.5155 13.7168 12.5091 12.7095 11.2677 12.7095C10.0262 12.7095 9.01978 13.7168 9.01978 14.9595C9.01978 16.2021 10.0262 17.2095 11.2677 17.2095Z" fill="#19ACB6"/>
<path d="M18.7606 17.2095C20.0021 17.2095 21.0085 16.2021 21.0085 14.9595C21.0085 13.7168 20.0021 12.7095 18.7606 12.7095C17.5191 12.7095 16.5127 13.7168 16.5127 14.9595C16.5127 16.2021 17.5191 17.2095 18.7606 17.2095Z" fill="#19ACB6"/>
</g>
<defs>
<clipPath id="clip0_529_10271">
<rect width="30" height="30" rx="15" fill="white"/>
</clipPath>
</defs>
</svg>
