<svg width="16" height="16" viewBox="0 0 16 16" fill="none" xmlns="http://www.w3.org/2000/svg">
<path fill-rule="evenodd" clip-rule="evenodd" d="M1.33337 0.833336C1.20077 0.833336 1.07359 0.886014 0.979821 0.979783C0.886052 1.07355 0.833374 1.20073 0.833374 1.33334C0.833374 1.46594 0.886052 1.59312 0.979821 1.68689C1.07359 1.78066 1.20077 1.83334 1.33337 1.83334H2.66671V8.18467C2.66671 9.078 2.66671 9.52467 2.84537 9.91867C3.02404 10.3127 3.36004 10.6067 4.03271 11.1953L5.36604 12.362C6.62137 13.46 7.24871 14.0087 8.00004 14.0087C8.75137 14.0087 9.37937 13.46 10.634 12.362L11.9674 11.1953C12.6394 10.6067 12.976 10.3127 13.154 9.91867C13.3334 9.52534 13.3334 9.07867 13.3334 8.18534V1.83334H14.6667C14.7993 1.83334 14.9265 1.78066 15.0203 1.68689C15.114 1.59312 15.1667 1.46594 15.1667 1.33334C15.1667 1.20073 15.114 1.07355 15.0203 0.979783C14.9265 0.886014 14.7993 0.833336 14.6667 0.833336H1.33337ZM5.66671 8.16667C5.5341 8.16667 5.40692 8.21935 5.31315 8.31312C5.21939 8.40688 5.16671 8.53406 5.16671 8.66667C5.16671 8.79928 5.21939 8.92645 5.31315 9.02022C5.40692 9.11399 5.5341 9.16667 5.66671 9.16667H10.3334C10.466 9.16667 10.5932 9.11399 10.6869 9.02022C10.7807 8.92645 10.8334 8.79928 10.8334 8.66667C10.8334 8.53406 10.7807 8.40688 10.6869 8.31312C10.5932 8.21935 10.466 8.16667 10.3334 8.16667H5.66671ZM5.16671 5.33334C5.16671 5.20073 5.21939 5.07355 5.31315 4.97978C5.40692 4.88601 5.5341 4.83334 5.66671 4.83334H10.3334C10.466 4.83334 10.5932 4.88601 10.6869 4.97978C10.7807 5.07355 10.8334 5.20073 10.8334 5.33334C10.8334 5.46594 10.7807 5.59312 10.6869 5.68689C10.5932 5.78066 10.466 5.83334 10.3334 5.83334H5.66671C5.5341 5.83334 5.40692 5.78066 5.31315 5.68689C5.21939 5.59312 5.16671 5.46594 5.16671 5.33334Z" fill="#19ACB6"/>
</svg>
