<svg width="48" height="48" viewBox="0 0 48 48" fill="none" xmlns="http://www.w3.org/2000/svg">
<path fill-rule="evenodd" clip-rule="evenodd" d="M14.6673 7.63721C16.2755 7.50881 17.8022 6.87628 19.0299 5.82968C20.4166 4.64864 22.1785 4 24 4C25.8215 4 27.5834 4.64864 28.9701 5.82968C30.1978 6.87628 31.7245 7.50881 33.3327 7.63721C35.1488 7.78236 36.8538 8.56964 38.1421 9.85792C39.4304 11.1462 40.2176 12.8512 40.3628 14.6673C40.4903 16.2749 41.1228 17.8024 42.1703 19.0299C43.3514 20.4166 44 22.1785 44 24C44 25.8215 43.3514 27.5834 42.1703 28.9701C41.1237 30.1978 40.4912 31.7245 40.3628 33.3327C40.2176 35.1488 39.4304 36.8538 38.1421 38.1421C36.8538 39.4304 35.1488 40.2176 33.3327 40.3628C31.7245 40.4912 30.1978 41.1237 28.9701 42.1703C27.5834 43.3514 25.8215 44 24 44C22.1785 44 20.4166 43.3514 19.0299 42.1703C17.8022 41.1237 16.2755 40.4912 14.6673 40.3628C12.8512 40.2176 11.1462 39.4304 9.85792 38.1421C8.56964 36.8538 7.78236 35.1488 7.63721 33.3327C7.50881 31.7245 6.87628 30.1978 5.82968 28.9701C4.64864 27.5834 4 25.8215 4 24C4 22.1785 4.64864 20.4166 5.82968 19.0299C6.87628 17.8022 7.50881 16.2755 7.63721 14.6673C7.78236 12.8512 8.56964 11.1462 9.85792 9.85792C11.1462 8.56964 12.8512 7.78236 14.6673 7.63721ZM33.2677 20.7674C33.7231 20.2959 33.9751 19.6644 33.9694 19.0089C33.9637 18.3534 33.7007 17.7264 33.2372 17.2628C32.7737 16.7993 32.1466 16.5364 31.4911 16.5307C30.8356 16.525 30.2041 16.777 29.7326 17.2324L21.5 25.465L18.2674 22.2325C17.7959 21.7771 17.1644 21.5251 16.5089 21.5308C15.8534 21.5365 15.2263 21.7994 14.7628 22.2629C14.2993 22.7265 14.0363 23.3535 14.0306 24.009C14.0249 24.6645 14.2769 25.296 14.7323 25.7675L19.7324 30.7676C20.2013 31.2363 20.837 31.4996 21.5 31.4996C22.1629 31.4996 22.7987 31.2363 23.2675 30.7676L33.2677 20.7674Z" fill="white"/>
</svg>
