<svg width="16" height="16" viewBox="0 0 16 16" fill="none" xmlns="http://www.w3.org/2000/svg">
<path fill-rule="evenodd" clip-rule="evenodd" d="M5.85731 9.66666C7.28575 9.66698 8.71419 9.66698 10.1426 9.66666C10.6271 9.66656 10.9572 9.66648 11.2455 9.71732C12.6255 9.96065 13.706 11.0411 13.9493 12.4212C14.0002 12.7095 14.0001 13.0396 14 13.524C14 13.6296 14.0032 13.7359 13.9848 13.8403C13.9118 14.2543 13.5876 14.5785 13.1736 14.6515C13.0828 14.6675 12.9872 14.667 12.9396 14.6667C9.64686 14.6491 6.35308 14.6491 3.06031 14.6667C3.01274 14.667 2.9171 14.6675 2.82632 14.6515C2.41231 14.5785 2.08816 14.2543 2.01516 13.8403C1.99675 13.7359 1.99998 13.6296 1.99996 13.524C1.99985 13.0396 1.99978 12.7095 2.05061 12.4212C2.29395 11.0411 3.37444 9.96065 4.75447 9.71732C5.04275 9.66648 5.37286 9.66656 5.85731 9.66666Z" fill="#19ACB6"/>
<path fill-rule="evenodd" clip-rule="evenodd" d="M4.3333 5.00001C4.3333 2.97497 5.97493 1.33334 7.99997 1.33334C10.025 1.33334 11.6666 2.97497 11.6666 5.00001C11.6666 7.02505 10.025 8.66668 7.99997 8.66668C5.97493 8.66668 4.3333 7.02505 4.3333 5.00001Z" fill="#19ACB6"/>
</svg>
