<svg width="24" height="24" viewBox="0 0 24 24" fill="none" xmlns="http://www.w3.org/2000/svg">
<path d="M22 16C22 14.3431 20.6569 13 19 13C17.3431 13 16 14.3431 16 16C16 17.6569 17.3431 19 19 19C20.6569 19 22 17.6569 22 16Z" stroke="#37394A" stroke-width="1.5"/>
<path d="M11 16V14.5C11 12.614 11 11.672 10.414 11.086C9.828 10.5 8.886 10.5 7 10.5H6.4C6.029 10.5 5.843 10.5 5.686 10.512C4.73647 10.5867 3.84475 10.9978 3.17125 11.6713C2.49776 12.3447 2.08669 13.2365 2.012 14.186C2 14.343 2 14.53 2 14.9C2 14.993 2 15.04 2.003 15.078C2.02158 15.3156 2.12436 15.5387 2.29285 15.7072C2.46134 15.8756 2.68445 15.9784 2.922 15.997C2.98129 15.9998 3.04065 16.0008 3.1 16H11ZM11 16H16" stroke="#37394A" stroke-width="1.5" stroke-linecap="round"/>
<path opacity="0.5" d="M9.5 16C9.5 16.7956 9.18393 17.5587 8.62132 18.1213C8.05871 18.6839 7.29565 19 6.5 19C5.70435 19 4.94129 18.6839 4.37868 18.1213C3.81607 17.5587 3.5 16.7956 3.5 16" stroke="#37394A" stroke-width="1.5" stroke-linecap="round"/>
<path d="M12 5H12.528C13.731 5 14.332 5 14.815 5.299C15.299 5.597 15.568 6.135 16.105 7.211L19 13" stroke="#37394A" stroke-width="1.5" stroke-linecap="round"/>
<path opacity="0.5" d="M18.143 11L18.824 10.498C19.087 10.304 19.219 10.208 19.31 10.081C19.3723 9.99518 19.4206 9.89999 19.453 9.799C19.5 9.65 19.5 9.487 19.5 9.161C19.5 8.543 19.5 8.235 19.368 8.004C19.2794 7.84902 19.151 7.72058 18.996 7.632C18.766 7.5 18.456 7.5 17.839 7.5H16.5" stroke="#37394A" stroke-width="1.5" stroke-linecap="round"/>
</svg>
