<svg width="16" height="16" viewBox="0 0 16 16" fill="none" xmlns="http://www.w3.org/2000/svg">
<path opacity="0.12" d="M11.8667 14C12.6134 14 12.9868 14 13.272 13.8547C13.5229 13.7268 13.7268 13.5229 13.8547 13.272C14 12.9868 14 12.6134 14 11.8666V7.46665C14 6.71991 14 6.34654 13.8547 6.06133C13.7268 5.81044 13.5229 5.60647 13.272 5.47864C12.9868 5.33331 12.6134 5.33331 11.8667 5.33331L4.13333 5.33331C3.3866 5.33331 3.01323 5.33331 2.72801 5.47864C2.47713 5.60647 2.27316 5.81044 2.14532 6.06133C2 6.34654 2 6.71991 2 7.46665L2 11.8666C2 12.6134 2 12.9868 2.14532 13.272C2.27316 13.5228 2.47713 13.7268 2.72801 13.8547C3.01323 14 3.3866 14 4.13333 14H11.8667Z" fill="#19ACB6"/>
<path d="M10.6667 5.33336V3.00046C10.6667 2.44597 10.6667 2.16872 10.5499 1.99834C10.4478 1.84948 10.2898 1.74835 10.1118 1.71808C9.90819 1.68342 9.65646 1.7996 9.153 2.03197L3.23934 4.76135C2.79034 4.96858 2.56583 5.0722 2.4014 5.2329C2.25604 5.37497 2.14508 5.54839 2.077 5.73991C2 5.95655 2 6.20381 2 6.69833V10M11 9.66669H11.0067M2 7.46669L2 11.8667C2 12.6134 2 12.9868 2.14532 13.272C2.27316 13.5229 2.47713 13.7269 2.72801 13.8547C3.01323 14 3.3866 14 4.13333 14H11.8667C12.6134 14 12.9868 14 13.272 13.8547C13.5229 13.7269 13.7268 13.5229 13.8547 13.272C14 12.9868 14 12.6134 14 11.8667V7.46669C14 6.71995 14 6.34658 13.8547 6.06137C13.7268 5.81049 13.5229 5.60651 13.272 5.47868C12.9868 5.33336 12.6134 5.33336 11.8667 5.33336L4.13333 5.33336C3.3866 5.33336 3.01323 5.33336 2.72801 5.47868C2.47713 5.60651 2.27316 5.81049 2.14532 6.06137C2 6.34658 2 6.71995 2 7.46669ZM11.3333 9.66669C11.3333 9.85078 11.1841 10 11 10C10.8159 10 10.6667 9.85078 10.6667 9.66669C10.6667 9.48259 10.8159 9.33335 11 9.33335C11.1841 9.33335 11.3333 9.48259 11.3333 9.66669Z" stroke="#19ACB6" stroke-width="1.16667" stroke-linecap="round" stroke-linejoin="round"/>
</svg>
