<svg width="16" height="16" viewBox="0 0 16 16" fill="none" xmlns="http://www.w3.org/2000/svg">
<path fill-rule="evenodd" clip-rule="evenodd" d="M1.33365 9.99985L1.33366 10.0036V11.8924C1.33365 12.2438 1.33364 12.547 1.35404 12.7967C1.37557 13.0602 1.42312 13.3224 1.55165 13.5746C1.74339 13.951 2.04936 14.2569 2.42568 14.4487C2.67793 14.5772 2.94008 14.6247 3.20364 14.6463C3.45335 14.6667 3.75653 14.6667 4.10795 14.6667L11.8927 14.6667C12.2441 14.6667 12.5473 14.6667 12.797 14.6463C13.0606 14.6247 13.3227 14.5772 13.575 14.4487C13.9513 14.2569 14.2573 13.951 14.449 13.5746C14.5775 13.3224 14.6251 13.0602 14.6466 12.7967C14.667 12.547 14.667 12.2438 14.667 11.8924V7.44095C14.667 7.08953 14.667 6.78636 14.6466 6.53665C14.6251 6.27308 14.5775 6.01094 14.449 5.75868C14.2573 5.38236 13.9513 5.0764 13.575 4.88465C13.3227 4.75612 13.0606 4.70858 12.797 4.68704C12.5473 4.66664 12.2441 4.66665 11.8927 4.66666H11.3336L11.3337 2.97322C11.3337 2.71931 11.3337 2.48521 11.3163 2.29457C11.2982 2.097 11.2554 1.84776 11.1 1.6212C10.8959 1.32348 10.5798 1.12123 10.224 1.06068C9.9532 1.0146 9.70892 1.0801 9.52198 1.14651C9.3416 1.2106 9.12904 1.30872 8.89851 1.41515L2.88231 4.19177C2.51111 4.36248 2.18479 4.51255 1.93575 4.75594C1.71771 4.96904 1.55127 5.22917 1.44915 5.51645C1.33253 5.84456 1.33302 6.20374 1.33357 6.61232L1.33365 9.99985ZM9.96834 2.40291C9.85248 2.44408 9.69615 2.5155 9.43269 2.6371L5.0353 4.66666L10.0003 4.66666V3.00028C10.0003 2.71011 9.99966 2.53824 9.98848 2.41579L9.98656 2.3966L9.96834 2.40291ZM11.0003 8.66666C10.448 8.66666 10.0003 9.11438 10.0003 9.66666C10.0003 10.2189 10.448 10.6667 11.0003 10.6667C11.5526 10.6667 12.0003 10.2189 12.0003 9.66666C12.0003 9.11438 11.5526 8.66666 11.0003 8.66666Z" fill="#19ACB6"/>
</svg>
