<svg width="130" height="130" viewBox="0 0 130 130" fill="none" xmlns="http://www.w3.org/2000/svg">
<g clip-path="url(#clip0_10555_25629)">
<rect width="130" height="130" rx="65" fill="#EBEBEB"/>
<path d="M49.4204 25.1724C50.4907 21.7202 52.9015 18.841 56.1122 17.1833C59.6077 15.3815 63.7734 15.2482 67.5968 16.1275C71.4202 17.0067 74.9517 18.8482 78.2886 20.9094C80.1625 22.0662 82.0291 23.331 83.3336 25.0932C85.7408 28.3075 88.0651 33.5399 88.1912 37.5579C88.2921 40.8011 86.8183 48.8803 85.366 51.7848C84.8471 52.819 83.6363 53.7343 82.1769 54.5019C80.6165 57.3775 78.5517 59.9505 76.0868 62.1018C75.3949 59.9036 74.7067 57.7055 74.0184 55.5073L49.4204 25.1724Z" fill="#263238"/>
<path d="M89.6218 65.2517C91.2038 59.3995 90.5083 52.1923 90.2597 47.1834C90.011 42.1744 91.1173 40.0159 87.3444 31.6304C84.5228 25.3493 79.8526 21.5404 75.4021 19.2305L57.4347 21.1872C57.5609 20.8701 57.6906 20.5638 57.8203 20.2719L51.4024 21.2341C49.0384 20.9458 47.4096 22.0737 46.2673 23.8827C45.8781 24.3187 45.543 24.8052 45.2727 25.3241C44.4222 26.9781 44.1412 28.8556 43.8709 30.6934C43.6223 32.5132 43.4925 34.3474 43.4853 36.1817C43.4313 36.9024 43.3844 37.5474 43.3376 38.0411C43.2907 38.8411 43.3592 39.6447 43.5358 40.4267C43.7988 48.1455 44.7898 56.6427 43.8493 63.0607C43.7484 63.731 43.6583 64.4481 43.9538 65.0607C44.2493 65.6733 44.952 66.0841 45.6078 66.394C53.5753 70.1814 59.2113 65.6409 67.0851 61.6661C68.6202 60.895 70.1878 59.958 71.9031 60.0229C73.7049 60.0914 75.2184 64.8445 76.8832 65.576" fill="#263238"/>
<path d="M81.2904 35.9362C81.085 31.0678 78.0471 26.9958 73.3625 25.6552L58.7608 21.4823C52.4222 20.6138 47.9501 28.3291 47.3555 34.6822C46.6889 41.7596 46.1916 49.2334 46.8691 54.5486C48.2312 65.2368 56.3428 66.8404 56.3428 66.8404C56.3428 66.8404 56.1987 71.9034 56.1158 75.0097L63.2112 109.089L78.6237 73.5251L81.3264 36.0479C81.3336 35.8858 81.3012 36.1813 81.2904 35.9362Z" fill="#FFBE9D"/>
<path d="M70.5663 63.46C70.5663 63.46 66.8943 70.6671 56.2817 69.3446L56.3466 66.8401C61.3087 67.0527 66.2312 65.8816 70.5663 63.46Z" fill="#7B4B45"/>
<path d="M50.5267 25.0502C51.2258 23.4683 53.0096 22.5566 54.7357 22.5277C56.4618 22.4989 58.1302 23.1908 59.6041 24.0989C65.8347 27.9403 68.8365 36.8772 74.9877 40.8447C76.5012 41.8213 78.5301 41.0249 79.8057 42.2861C81.0814 43.5474 81.8706 45.5546 81.0994 47.1798C81.9751 46.0518 82.8615 44.9023 83.3769 43.5762C83.8922 42.2501 84.0003 40.6933 83.3192 39.4249C82.8039 38.4699 81.8778 37.7276 81.6363 36.6681C81.4309 35.7384 81.8237 34.7799 81.8129 33.8285C81.8021 32.8772 81.3697 31.9439 80.9156 31.0862C78.5877 26.679 75.3265 22.6611 71.0526 20.0953C68.2635 18.38 65.0599 17.4503 61.7843 17.4143C58.4942 17.3963 55.305 18.5566 52.797 20.6863C51.3555 21.9512 49.8492 23.2593 50.5231 25.0502" fill="#263238"/>
<path d="M79.6148 43.6052C79.7337 43.3025 85.3409 41.4431 85.2472 47.3566C85.1535 53.0898 79.4058 51.7962 79.3986 51.6304C79.3914 51.4646 79.6148 43.6052 79.6148 43.6052Z" fill="#FFBE9D"/>
<path d="M81.2073 49.4933C81.2325 49.4933 81.3046 49.5654 81.474 49.6482C81.7118 49.7527 81.9749 49.7636 82.2199 49.6771C82.8289 49.4645 83.3586 48.5131 83.4055 47.4825C83.4307 46.9888 83.3442 46.4951 83.1532 46.0411C83.0523 45.6807 82.7857 45.3888 82.4325 45.2591C82.1983 45.1906 81.946 45.3023 81.8379 45.5222C81.755 45.6807 81.7911 45.796 81.7586 45.8032C81.7262 45.8104 81.6397 45.7059 81.6902 45.4717C81.7226 45.3276 81.8055 45.2014 81.9208 45.1113C82.0793 44.996 82.2812 44.9492 82.4757 44.978C82.955 45.0789 83.3442 45.4249 83.5028 45.8861C83.737 46.387 83.8451 46.9384 83.8199 47.4897C83.7586 48.6428 83.146 49.7131 82.3136 49.9365C82.0001 50.023 81.6649 49.9582 81.4055 49.7672C81.2145 49.6338 81.1857 49.5041 81.2073 49.4933Z" fill="#FF9A6C"/>
<path d="M81.9857 40.7216C81.8632 40.6676 81.7514 40.5991 81.6433 40.5198C81.4307 40.3757 81.0956 40.1811 80.6992 39.882C79.5965 39.0244 78.5839 38.0478 77.6866 36.9775C76.3821 35.3739 75.1641 33.6983 74.0434 31.9578C72.7461 30.0226 71.3227 27.8821 69.4849 25.9326C68.584 24.9957 67.5822 24.156 66.5011 23.4353C65.4885 22.7722 64.4002 22.2389 63.2579 21.8461C61.3192 21.1578 59.2652 20.8479 57.2111 20.9272C55.8165 20.9633 54.4364 21.1903 53.103 21.5939C52.6274 21.7236 52.2778 21.8714 52.022 21.9542C51.9067 22.0083 51.7841 22.0479 51.6616 22.0768C51.7769 22.0119 51.8959 21.9542 52.022 21.9074C52.3751 21.7488 52.7355 21.6119 53.103 21.4966C54.4292 21.0461 55.8129 20.7867 57.2147 20.7254C59.294 20.6209 61.3732 20.92 63.3408 21.6011C64.5083 21.9975 65.6219 22.5344 66.6561 23.2047C67.7552 23.9326 68.7714 24.7758 69.6867 25.7272C71.5353 27.72 72.9515 29.8821 74.238 31.8208C75.3443 33.5649 76.5407 35.2478 77.8235 36.8658C78.7028 37.9397 79.6866 38.9271 80.7569 39.8099C81.1388 40.1162 81.4595 40.3252 81.6649 40.4838C81.7767 40.5559 81.8848 40.6351 81.9857 40.7216Z" fill="#455A64"/>
<path d="M81.831 50.5268C82.4436 50.4367 83.013 50.8583 83.1031 51.4709C83.1932 52.0835 82.7715 52.6529 82.1589 52.743C81.5463 52.8331 80.977 52.4114 80.8869 51.7988C80.8112 51.2943 81.0887 50.8006 81.5607 50.6024" fill="white"/>
<path d="M81.5608 50.6025C81.3085 50.7934 81.1211 51.0565 81.0238 51.3592C80.9301 51.6763 81.0058 52.0151 81.222 52.2637C81.568 52.6961 82.1986 52.7646 82.631 52.4187C82.8364 52.2529 82.9698 52.0151 82.9986 51.752C83.049 51.4277 82.9301 51.0997 82.6851 50.8799C82.4472 50.6745 82.1481 50.5484 81.831 50.5196C81.831 50.5196 81.9211 50.4619 82.1013 50.4619C82.3643 50.4691 82.6202 50.5628 82.822 50.7322C83.1391 50.9808 83.3049 51.3808 83.2508 51.7808C83.186 52.4547 82.5842 52.952 81.9103 52.8871C81.5716 52.8547 81.2617 52.6817 81.0526 52.4114C80.7968 52.1015 80.7247 51.6763 80.8617 51.2979C80.9409 51.0493 81.0995 50.8367 81.3157 50.6925C81.4526 50.6025 81.5535 50.588 81.5608 50.6025Z" fill="#263238"/>
<path d="M80.4902 42.3039C80.5371 43.8715 80.5587 45.5255 79.7984 46.8949C79.038 48.2643 77.1858 49.1615 75.8344 48.3363C74.7534 47.6697 74.4507 46.239 74.2993 44.9706C73.8597 41.3058 73.7155 37.6085 73.2471 33.9473L80.4902 42.3039Z" fill="#263238"/>
<path d="M52.0186 22.3655C52.0186 22.398 52.5267 22.2827 53.46 22.2827C54.7573 22.2971 56.0401 22.5673 57.2329 23.0827C58.0581 23.4286 58.8401 23.861 59.5716 24.3727C60.4077 24.9709 61.2077 25.6196 61.968 26.3151C63.7266 27.8934 65.2869 29.6736 66.6202 31.6231C67.3193 32.6681 67.9319 33.7348 68.6058 34.7294C69.2364 35.6951 69.9752 36.5852 70.8148 37.378C72.2634 38.6825 73.8562 39.8176 75.5643 40.7546C77.0057 41.5726 78.2165 42.1491 79.0525 42.5563L80.0183 43.0032C80.1336 43.0645 80.2525 43.1077 80.3787 43.1365C80.2778 43.0608 80.1733 42.996 80.0579 42.9419L79.103 42.4374C78.2886 42.005 77.0958 41.396 75.6724 40.5564C74.0003 39.5978 72.4364 38.4591 71.013 37.1618C70.1914 36.3798 69.467 35.5042 68.8508 34.5528C68.1914 33.569 67.5788 32.4988 66.8725 31.4465C65.5319 29.4754 63.95 27.6772 62.1662 26.0952C61.3914 25.3961 60.5734 24.7475 59.7194 24.1529C58.9662 23.6412 58.159 23.2088 57.3122 22.87C56.0906 22.3619 54.7753 22.1169 53.4528 22.1493C53.096 22.1601 52.7393 22.1998 52.3897 22.2646C52.2636 22.2827 52.1375 22.3151 52.0186 22.3655Z" fill="#455A64"/>
<path d="M37.0493 152.241L93.229 152.173L92.6452 141.269L93.6938 102.062L92.5515 76.5232C87.8669 74.5953 78.9336 71.626 78.9336 71.626C78.9336 71.626 75.6219 79.5827 66.9698 79.5827C58.923 79.5827 55.9284 72.5341 55.9284 72.5341L51.9429 74.1088C46.8402 74.9485 41.8457 76.3503 37.0493 78.289L39.0385 105.557C39.0385 105.557 43.2186 128.494 42.5015 132.555C41.7844 136.616 37.0493 152.241 37.0493 152.241Z" fill="#E18026"/>
<g opacity="0.3">
<path d="M61.5174 112.812C61.049 115.918 60.7102 119.493 62.8291 121.82C64.0544 123.157 65.8489 123.766 67.4417 124.628C70.7138 126.393 73.2074 129.312 75.4741 132.249C77.7407 135.186 79.8704 138.307 82.7028 140.718C85.5353 143.128 89.2433 144.808 92.9226 144.285L92.155 136.955L73.0957 117.55L61.5174 112.812Z" fill="black"/>
</g>
<path d="M37.77 78.0264C37.77 78.0264 33.2908 79.5651 29.2908 87.7776C26.8224 92.8551 17.8783 123.813 17.5432 127.691C17.5216 127.936 17.5432 128.213 17.5143 128.516C16.3432 139.327 26.7035 146.793 35.4781 140.97C38.0871 139.208 40.0259 136.613 40.9772 133.611L44.3646 123.132L37.77 78.0264Z" fill="#E18026"/>
<path d="M63.7444 128.638C63.7156 128.681 59.885 126.349 55.186 123.43C50.4869 120.512 46.6959 118.104 46.7248 118.061C46.7536 118.018 50.5842 120.349 55.2833 123.272C59.9823 126.194 63.7697 128.594 63.7444 128.638Z" fill="#263238"/>
<path d="M92.5516 76.5234C92.5516 76.5234 103.24 78.5667 105.524 85.9143C107.571 92.4188 112.256 121.496 112.905 127.539C113.773 135.827 111.96 145.074 103.121 146.007C94.2813 146.941 77.6616 131.658 77.6616 131.658L88.5588 117.539L92.9083 119.878L92.1119 99.716L92.5516 76.5234Z" fill="#E18026"/>
<path d="M96.0614 144.512L95.9569 144.476L95.6542 144.357C95.3911 144.242 94.9839 144.108 94.4938 143.86C93.0812 143.168 91.7118 142.389 90.3929 141.535C85.9209 138.551 81.6507 135.276 77.6147 131.726L77.5498 131.672L77.6003 131.604C78.9408 129.87 80.357 128.033 81.8128 126.141L88.5047 117.492L88.5479 117.435L88.6128 117.467C91.0308 118.699 93.2109 119.946 95.1532 121.071C97.0956 122.195 98.7857 123.2 100.198 124.04C101.611 124.88 102.699 125.557 103.441 126.022L104.303 126.562L104.519 126.703C104.569 126.735 104.595 126.753 104.591 126.757L104.512 126.714L104.285 126.584L103.413 126.072L100.133 124.13C98.7244 123.305 97.0235 122.307 95.0884 121.197C93.1533 120.087 90.9587 118.851 88.5443 117.626L88.6524 117.6L81.975 126.267L77.7588 131.726V131.6C81.784 135.15 86.0362 138.44 90.483 141.445C91.7911 142.31 93.1461 143.099 94.5442 143.813C95.0307 144.069 95.4343 144.213 95.6902 144.335L95.9893 144.472C96.0397 144.476 96.065 144.508 96.0614 144.512Z" fill="#263238"/>
<path d="M40.2743 99.7052C40.195 99.7124 40.1193 99.7124 40.04 99.7052L39.359 99.6295L36.8112 99.3232L27.932 98.1809L28.0257 98.116C27.4131 100.235 26.7573 102.563 26.0906 105.006C24.6492 110.228 23.4564 114.977 22.6672 118.433C22.2708 120.163 21.9753 121.564 21.7771 122.537C21.6835 123.013 21.6078 123.388 21.5537 123.658C21.5285 123.777 21.5069 123.871 21.4925 123.946C21.4889 123.982 21.4781 124.015 21.4636 124.047C21.46 124.011 21.46 123.979 21.4636 123.943L21.5069 123.651C21.5537 123.381 21.615 123.002 21.6943 122.523C21.8708 121.546 22.1483 120.137 22.5267 118.404C23.2834 114.937 24.469 110.181 25.8996 104.956C26.5663 102.512 27.2257 100.184 27.8492 98.0691L27.8708 97.9971H27.9429L36.8221 99.1899L39.3446 99.5502L40.022 99.6547L40.2743 99.7052Z" fill="#263238"/>
<path d="M41.6473 97.5684C41.7014 97.5684 42.0077 104.963 42.3248 114.087C42.6419 123.211 42.869 130.613 42.8185 130.617C42.7681 130.62 42.4581 123.222 42.1374 114.094C41.8167 104.966 41.5969 97.5684 41.6473 97.5684Z" fill="#263238"/>
<path d="M92.1622 100.901C92.1694 100.966 92.1694 101.031 92.1622 101.096V101.647C92.1622 102.127 92.1622 102.822 92.1874 103.68C92.2198 105.399 92.3135 107.77 92.4396 110.39C92.5658 113.009 92.6991 115.355 92.8 117.096C92.8396 117.935 92.8757 118.624 92.9009 119.128C92.9009 119.352 92.9009 119.535 92.9225 119.683C92.9333 119.748 92.9333 119.813 92.9225 119.878C92.9081 119.817 92.8973 119.752 92.8901 119.687L92.836 119.135C92.7964 118.627 92.7387 117.943 92.6739 117.103C92.5477 115.391 92.3928 113.02 92.2667 110.4C92.1405 107.781 92.0757 105.402 92.0757 103.683C92.0757 102.822 92.0757 102.127 92.1117 101.647C92.1117 101.424 92.1369 101.24 92.1441 101.092C92.1441 101.027 92.1441 100.963 92.1622 100.901Z" fill="#263238"/>
<path d="M99.665 84.2959C99.7083 84.3247 97.9245 87.1788 95.6831 90.6778C93.4417 94.1769 91.5894 96.9841 91.5462 96.9552C91.5029 96.9264 93.2831 94.0724 95.5281 90.5769C97.7731 87.0815 99.6218 84.2959 99.665 84.2959Z" fill="#263238"/>
<path d="M45.4745 74.7251C44.2384 74.7792 44.1159 74.1089 42.7538 76.1197C41.3916 78.1305 42.1664 80.4872 39.8961 80.88C37.6259 81.2728 36.17 76.4152 35.9322 75.9576C35.8313 75.7485 35.2547 74.4801 34.4908 72.8152C33.5683 70.7936 32.3827 68.1846 31.453 66.1703C29.7593 62.4982 28.0476 63.9685 28.0476 63.9685L31.0277 74.6891C31.0277 74.6891 26.7287 66.7144 24.9017 64.9595C23.0747 63.2045 21.8603 64.7432 21.8603 64.7432L27.6836 76.0801C27.6836 76.0801 23.1143 69.6981 21.8062 67.8675C20.4981 66.0369 19.4134 66.0982 19.0423 66.6928C18.6711 67.2874 18.9342 68.4585 19.3774 69.381C19.8206 70.3036 25.4098 78.8152 25.1792 78.7864C24.9485 78.7575 20.4549 75.3269 19.2513 74.7251C18.0477 74.1233 17.0495 74.6278 16.9018 75.6765C16.754 76.7251 25.5143 84.48 25.5143 84.48L29.3233 94.3862L28.653 98.2528L39.6547 99.5393L39.8457 93.7916C39.8457 93.7916 42.3105 90.0151 43.2006 87.2836C44.0907 84.5521 45.4601 77.4494 45.9177 76.7287C46.3754 76.008 46.7069 74.6747 45.4745 74.7251Z" fill="#FFBE9D"/>
<path d="M39.5464 87.2616C39.5464 87.2616 39.3158 87.2183 38.905 87.1499C38.3284 87.0526 37.741 87.0165 37.1536 87.0418C36.75 87.0634 36.3464 87.1066 35.9464 87.1787C35.4708 87.2832 34.9807 87.2832 34.505 87.1787C33.9933 87.0165 33.5393 86.7102 33.1897 86.303C32.8293 85.903 32.4978 85.4382 32.1483 84.9949C30.9483 83.4634 29.5609 82.0941 28.015 80.9121C27.424 80.4616 26.9339 80.1193 26.5735 79.8887C26.3862 79.7806 26.2096 79.658 26.0366 79.5283C26.0366 79.5283 26.0943 79.5463 26.1916 79.5968C26.2889 79.6472 26.433 79.7265 26.6096 79.8346C27.1213 80.1373 27.615 80.4616 28.0907 80.8148C29.6726 81.9715 31.0852 83.3409 32.2924 84.8868C32.6528 85.3373 32.9591 85.7985 33.3194 86.1841C33.6438 86.5733 34.069 86.8616 34.5483 87.0201C34.9951 87.1174 35.4564 87.1174 35.9032 87.0201C36.3068 86.9553 36.7176 86.9156 37.1284 86.9048C37.723 86.8904 38.3176 86.9481 38.9014 87.0742C39.1068 87.121 39.2617 87.1643 39.3698 87.1967C39.4311 87.2111 39.4887 87.2328 39.5464 87.2616Z" fill="#FF9A6C"/>
<path d="M75.5499 100.246C76.4112 99.8925 77.3986 100.138 77.9932 100.855C78.9697 102.033 80.4003 103.788 81.0922 104.775C82.1949 106.35 82.5877 111.474 82.5877 111.474L83.3084 117.384L87.4922 119.817L79.6472 129.705L73.2004 123.687L66.9879 121.417C66.9879 121.417 62.8077 117.478 62.0978 115.651C61.6762 114.62 61.4636 113.521 61.4672 112.408C61.4672 112.408 59.4996 108.156 59.1032 106.642C58.7068 105.129 58.7105 102.465 58.7105 102.465C58.7105 102.465 59.8131 102.148 60.7609 103.961L59.2618 100.891C59.2618 100.891 60.051 98.5268 62.0978 100.811C64.1446 103.096 67.5356 106.956 67.5356 106.956L71.3986 110.029L71.8707 109.478C71.8707 109.478 65.0239 101.125 65.1717 99.6295C65.3194 98.134 66.75 98.0511 68.2455 99.6295C69.741 101.208 75.8887 109.085 76.6779 109.165C77.467 109.244 77.7013 108.141 77.7013 108.141L77.1499 105.147L76.8364 104.516L75.9968 103.183C75.449 102.311 75.2869 101.247 75.5499 100.249V100.246Z" fill="#FFBE9D"/>
<path d="M66.3642 112.105C66.2597 112.019 66.166 111.921 66.0867 111.813C65.9173 111.615 65.6795 111.323 65.3948 110.959C64.8218 110.239 64.0579 109.201 63.2615 108.033C62.4651 106.866 61.784 105.777 61.3156 104.977C61.0813 104.577 60.8975 104.257 60.775 104.022C60.7029 103.911 60.6453 103.788 60.6021 103.662C60.6957 103.763 60.775 103.871 60.8399 103.99L61.4453 104.909C61.9426 105.687 62.6345 106.761 63.4309 107.929C64.2272 109.096 64.9696 110.131 65.5137 110.88L66.1588 111.767C66.238 111.871 66.3065 111.986 66.3642 112.105Z" fill="#FF9A6C"/>
<path d="M64.516 116.054C63.8493 115.283 63.2259 114.472 62.6529 113.629C62.0331 112.825 61.4637 111.982 60.9448 111.106C61.6115 111.878 62.2349 112.688 62.8079 113.532C63.4313 114.335 64.0007 115.178 64.516 116.054Z" fill="#FF9A6C"/>
<path d="M58.0327 50.5453C58.0399 50.4732 57.2219 50.3399 55.8958 50.1813C55.5607 50.1489 55.2435 50.084 55.1859 49.8606C55.1066 49.6228 55.2471 49.266 55.4093 48.8804C55.7228 48.0804 56.0543 47.2408 56.4003 46.3615C57.7769 42.776 58.7714 39.8282 58.6273 39.7742C58.4796 39.7201 57.2435 42.585 55.8706 46.1741C55.539 47.057 55.2219 47.9002 54.9228 48.7074C54.7967 49.0822 54.5769 49.511 54.7499 50.0047C54.8399 50.2498 55.0886 50.4299 55.3012 50.484C55.5174 50.5489 55.7048 50.5489 55.8706 50.5597C57.2039 50.6209 58.0291 50.6245 58.0363 50.5489L58.0327 50.5453Z" fill="#1A2E35"/>
<path d="M54.2455 42.9951C54.1266 42.7825 53.0743 43.478 51.7734 43.2978C50.4689 43.1393 49.6401 42.1988 49.4671 42.3717C49.3843 42.4474 49.4816 42.8114 49.8383 43.2366C50.1915 43.6582 50.8329 44.105 51.6473 44.2132C52.4617 44.3177 53.2005 44.051 53.6545 43.7339C54.1158 43.4168 54.3067 43.0924 54.2455 42.9951Z" fill="#1A2E35"/>
<path d="M66.9983 42.2496C66.7929 42.1055 66.0289 43.1721 64.656 43.5361C63.2902 43.9217 62.083 43.3992 61.9821 43.6298C61.9317 43.7343 62.1731 44.0298 62.7064 44.2712C63.229 44.5127 64.0506 44.664 64.9046 44.4298C65.7587 44.1956 66.3893 43.6442 66.71 43.1721C67.0379 42.6929 67.0992 42.3145 66.9983 42.2532V42.2496Z" fill="#1A2E35"/>
<path d="M67.2973 38.9559C67.2577 38.5847 65.946 38.4262 64.4938 37.8712C63.0307 37.3451 61.9352 36.6136 61.6577 36.8658C61.5316 36.9883 61.6578 37.3631 62.0614 37.8136C62.4613 38.264 63.1532 38.7721 64.0253 39.0964C64.8974 39.4171 65.7586 39.4856 66.3568 39.4063C66.9622 39.3271 67.3081 39.1289 67.2937 38.9559H67.2973Z" fill="#1A2E35"/>
<path d="M53.6941 37.0385C53.341 36.8439 52.4113 37.4709 51.1861 37.8889C49.9716 38.3429 48.8545 38.4511 48.7068 38.8222C48.6491 38.9988 48.9014 39.2258 49.4419 39.3375C49.9753 39.4528 50.7969 39.4204 51.6365 39.1213C52.4761 38.8222 53.1248 38.3249 53.4599 37.8997C53.8022 37.4709 53.8527 37.1358 53.6941 37.0385Z" fill="#1A2E35"/>
<path d="M71.0995 45.7809C70.9878 45.5755 70.8004 45.4206 70.6058 45.2945C70.0437 44.9341 69.3662 44.7611 68.7031 44.8044L68.8905 44.9737C69.0995 45.2764 69.3085 45.5791 69.5139 45.8818C69.7013 46.1557 69.9031 46.444 70.1986 46.5953C70.4941 46.7503 70.9157 46.7215 71.0995 46.444C71.2292 46.2494 71.2076 45.9827 71.0995 45.7773V45.7809Z" fill="white"/>
<path d="M70.2309 48.3762C70.2705 48.1816 70.2309 47.9798 70.1732 47.7924C70.0038 47.2555 69.6615 46.7726 69.2039 46.4375L69.2327 46.6501C69.2039 46.96 69.1714 47.2699 69.1426 47.5798C69.1138 47.8609 69.0885 48.1564 69.1966 48.4159C69.3047 48.6753 69.593 48.8879 69.8633 48.8087C70.0543 48.7546 70.184 48.5708 70.2273 48.3762H70.2309Z" fill="white"/>
<path d="M47.4888 48.0407C47.4996 47.8353 47.5861 47.6407 47.6942 47.4677C48.0005 46.9668 48.4725 46.5704 49.0167 46.3506L48.9338 46.556C48.8833 46.8767 48.8365 47.1938 48.7861 47.5145C48.7428 47.8064 48.6924 48.1091 48.5158 48.3434C48.3392 48.5776 47.9969 48.7181 47.7446 48.5668C47.568 48.4623 47.4816 48.2425 47.4924 48.0371L47.4888 48.0407Z" fill="white"/>
<path d="M57.6402 53.7811C58.1159 53.118 58.9014 52.7541 59.7158 52.8189C60.3032 52.8442 60.8546 53.1108 61.2402 53.5541C61.6149 53.9865 61.6798 54.6063 61.4023 55.1072C60.9915 55.6045 60.3212 55.8027 59.705 55.6117C59.078 55.4207 58.4978 55.1036 57.9933 54.6856C57.842 54.5847 57.705 54.4586 57.6005 54.3072C57.5069 54.1595 57.5069 53.9685 57.6005 53.8207" fill="#FF9A6C"/>
<path d="M63.0706 54.3903C63.0274 54.4515 62.685 54.2533 62.0977 54.0876C61.5139 53.9218 60.6562 53.8209 59.777 54.0696C58.8977 54.3182 58.2166 54.8515 57.8058 55.2984C57.3878 55.7452 57.2004 56.0948 57.1319 56.0623C57.0779 56.0443 57.1572 55.6299 57.5391 55.0822C57.9139 54.5416 58.6418 53.8894 59.6436 53.6047C60.6454 53.3236 61.6076 53.5002 62.2094 53.7669C62.822 54.0335 63.1031 54.3434 63.067 54.3903H63.0706Z" fill="#1A2E35"/>
<path d="M67.3768 44.5777C67.4128 44.6065 67.3335 44.7975 67.1029 45.0353C66.8759 45.2732 66.4903 45.5398 66.0074 45.6876C65.5209 45.8353 65.0525 45.8317 64.7318 45.7596C64.4074 45.6912 64.2345 45.5795 64.2489 45.5326C64.2777 45.4281 65.0309 45.6047 65.8957 45.3272C66.7678 45.0714 67.2939 44.5056 67.3768 44.5741V44.5777Z" fill="#FF9A6C"/>
<path d="M52.5229 45.2548C52.5481 45.2944 52.422 45.4458 52.1409 45.5935C51.8634 45.7412 51.4238 45.8602 50.9373 45.8313C50.4508 45.7989 50.0292 45.6223 49.7733 45.4385C49.5139 45.2548 49.4058 45.0854 49.4382 45.0494C49.5067 44.9665 50.0977 45.4097 50.9589 45.4566C51.8202 45.525 52.4616 45.1611 52.5193 45.2548H52.5229Z" fill="#FF9A6C"/>
</g>
<defs>
<clipPath id="clip0_10555_25629">
<rect width="130" height="130" rx="65" fill="white"/>
</clipPath>
</defs>
</svg>
